<?xml version="1.0" standalone="no"?><!DOCTYPE svg PUBLIC "-//W3C//DTD SVG 1.1//EN" "http://www.w3.org/Graphics/SVG/1.1/DTD/svg11.dtd"><svg class="icon" width="200px" height="200.00px" viewBox="0 0 1024 1024" version="1.1" xmlns="http://www.w3.org/2000/svg"><path d="M847.7952 487.808l54.2976 54.272L574.08 870.144c-104.96 104.96-275.2 104.96-380.16 0s-104.96-275.2 0-380.16L570.9568 112.9472A192 192 0 0 1 842.496 384.512L465.4592 761.5232a115.2 115.2 0 1 1-162.9184-162.9184l346.112-346.112 54.3232 54.272-346.112 346.1376a38.4 38.4 0 0 0 54.272 54.3232L788.224 330.1888a115.2 115.2 0 0 0-162.9184-162.9184L248.2432 544.3072a192 192 0 1 0 271.5136 271.5136l328.0384-328.0128z" /></svg>