<?xml version="1.0" standalone="no"?><!DOCTYPE svg PUBLIC "-//W3C//DTD SVG 1.1//EN" "http://www.w3.org/Graphics/SVG/1.1/DTD/svg11.dtd"><svg class="icon" width="200px" height="200.00px" viewBox="0 0 1024 1024" version="1.1" xmlns="http://www.w3.org/2000/svg"><path d="M512 51.2c254.4896 0 460.8 206.3104 460.8 460.8s-206.3104 460.8-460.8 460.8S51.2 766.4896 51.2 512 257.5104 51.2 512 51.2z m0 76.8C299.9296 128 128 299.9296 128 512c0 212.0704 171.9296 384 384 384 212.0704 0 384-171.9296 384-384 0-212.0704-171.9296-384-384-384z m61.2608 148.6848l54.3232 54.272L446.5664 512l180.992 181.0176-54.272 54.2976L337.92 512l235.3152-235.3152z" /></svg>