<?xml version="1.0" standalone="no"?><!DOCTYPE svg PUBLIC "-//W3C//DTD SVG 1.1//EN" "http://www.w3.org/Graphics/SVG/1.1/DTD/svg11.dtd"><svg class="icon" width="200px" height="200.00px" viewBox="0 0 1024 1024" version="1.1" xmlns="http://www.w3.org/2000/svg"><path d="M947.2 128a25.6 25.6 0 0 1 25.6 25.6v640a25.6 25.6 0 0 1-25.6 25.6H484.0448l-186.624 146.6624A25.6 25.6 0 0 1 256 945.7408V819.2H76.8a25.6 25.6 0 0 1-25.6-25.6V153.6a25.6 25.6 0 0 1 25.6-25.6h870.4z m-51.2 76.8H128v537.6h204.8v97.9712L457.472 742.4H896V204.8zM563.2 537.6v76.8H256v-76.8h307.2z m204.8-204.8v76.8H256v-76.8h512z" /></svg>