<svg class="icon" width="200" height="200" viewBox="0 0 1024 1024" xmlns="http://www.w3.org/2000/svg"><path d="M230.4 947.2v-76.8h243.2V739.814C344.422 722.202 243.123 616.986 231.5 485.99A166.4 166.4 0 0 1 76.8 320V128h153.6V76.8h563.2V128h153.6v192a166.4 166.4 0 0 1-154.752 165.99c-11.571 130.97-112.87 236.186-242.022 253.799L550.4 870.4h243.2v76.8H230.4zm486.4-793.6H307.2v307.2a204.8 204.8 0 0 0 198.4 204.698l6.4.102a204.8 204.8 0 0 0 204.8-204.8V153.6zm-486.4 51.2h-76.8V320a89.6 89.6 0 0 0 76.8 88.704V204.8zm640 0h-76.8v203.878A89.6 89.6 0 0 0 870.4 320V204.8z"/></svg>