<?xml version="1.0" standalone="no"?><!DOCTYPE svg PUBLIC "-//W3C//DTD SVG 1.1//EN" "http://www.w3.org/Graphics/SVG/1.1/DTD/svg11.dtd"><svg class="icon" width="200px" height="200.00px" viewBox="0 0 1024 1024" version="1.1" xmlns="http://www.w3.org/2000/svg"><path d="M512 51.2c254.4896 0 460.8 206.3104 460.8 460.8s-206.3104 460.8-460.8 460.8S51.2 766.4896 51.2 512 257.5104 51.2 512 51.2z m0 76.8C299.9296 128 128 299.9296 128 512c0 212.0704 171.9296 384 384 384 212.0704 0 384-171.9296 384-384 0-212.0704-171.9296-384-384-384z m150.2208 481.7408l64.384 41.9072A255.7952 255.7952 0 0 1 512 768a255.744 255.744 0 0 1-212.5312-113.2544l63.744-42.8032A179.0208 179.0208 0 0 0 512 691.2a179.0464 179.0464 0 0 0 150.2208-81.4592zM358.4 358.4a51.2 51.2 0 1 1 0 102.4 51.2 51.2 0 0 1 0-102.4z m307.2 0a51.2 51.2 0 1 1 0 102.4 51.2 51.2 0 0 1 0-102.4z" /></svg>