<?xml version="1.0" standalone="no"?><!DOCTYPE svg PUBLIC "-//W3C//DTD SVG 1.1//EN" "http://www.w3.org/Graphics/SVG/1.1/DTD/svg11.dtd"><svg class="icon" width="200px" height="200.00px" viewBox="0 0 1024 1024" version="1.1" xmlns="http://www.w3.org/2000/svg"><path d="M486.4 76.8c155.7504 0 292.3776 81.8176 369.28 204.8h-94.72A357.632 357.632 0 0 0 486.4 153.6C288.4608 153.6 128 314.0608 128 512s160.4608 358.4 358.4 358.4a357.632 357.632 0 0 0 274.5088-127.9744h94.7456C778.7776 865.408 642.1504 947.2 486.4 947.2 246.0416 947.2 51.2 752.3584 51.2 512S246.0416 76.8 486.4 76.8z m358.4 290.3808L989.6192 512 844.8 656.8192l-54.2976-54.2976 52.096-52.1216H409.6v-76.8h432.9984l-52.096-52.1216L844.8 367.2064z" /></svg>