<?xml version="1.0" standalone="no"?><!DOCTYPE svg PUBLIC "-//W3C//DTD SVG 1.1//EN" "http://www.w3.org/Graphics/SVG/1.1/DTD/svg11.dtd"><svg class="icon" width="200px" height="200.00px" viewBox="0 0 1024 1024" version="1.1" xmlns="http://www.w3.org/2000/svg"><path d="M863.681561 141.287024a199.804878 199.804878 0 0 1 0 282.574049L412.297366 875.245268a99.602732 99.602732 0 0 1-61.589854 28.771903l-68.258341 5.894244-45.580488 3.521561c-90.586537 6.593561-138.664585 7.068098-144.259122 1.498536-2.572488-2.597463-3.946146-14.336-4.096-35.265561v-8.266927c0.249756-42.083902 4.49561-114.263415 12.737561-216.538536a99.777561 99.777561 0 0 1 28.921756-62.613854L581.132488 141.287024a199.804878 199.804878 0 0 1 282.549073 0zM546.865951 281.475122L183.171122 645.194927a24.875707 24.875707 0 0 0-7.217951 15.659707l-5.469659 71.605073a4172.824976 4172.824976 0 0 0-4.870244 76.949854l-1.498536 33.39239 16.733658-0.824195 24.201366-1.448585c28.497171-1.848195 62.538927-4.49561 102.025366-7.892293l37.013854-3.246829a24.625951 24.625951 0 0 0 15.235122-7.118049l364.14439-364.194341-176.602537-176.602537z m87.239805-87.214829l-34.241561 34.216585 176.577561 176.627512 34.266537-34.216585a124.878049 124.878049 0 1 0-176.602537-176.627512z" /></svg>