<?xml version="1.0" standalone="no"?><!DOCTYPE svg PUBLIC "-//W3C//DTD SVG 1.1//EN" "http://www.w3.org/Graphics/SVG/1.1/DTD/svg11.dtd"><svg class="icon" width="200px" height="200.00px" viewBox="0 0 1024 1024" version="1.1" xmlns="http://www.w3.org/2000/svg"><path d="M972.8 896a51.2 51.2 0 0 1-51.2 51.2H102.4a51.2 51.2 0 0 1-51.2-51.2V153.6a51.2 51.2 0 0 1 51.2-51.2h240.3072a51.2 51.2 0 0 1 42.4448 22.5536L439.0144 204.8H921.6a51.2 51.2 0 0 1 51.2 51.2v640z m-76.8-435.2H128v409.6h768V460.8zM329.088 179.2H128v204.8h768v-102.4H398.208l-69.12-102.4z" /></svg>