<?xml version="1.0" standalone="no"?><!DOCTYPE svg PUBLIC "-//W3C//DTD SVG 1.1//EN" "http://www.w3.org/Graphics/SVG/1.1/DTD/svg11.dtd"><svg class="icon" width="200px" height="200.00px" viewBox="0 0 1024 1024" version="1.1" xmlns="http://www.w3.org/2000/svg"><path d="M368.3072 102.4a51.2 51.2 0 0 1 42.4448 22.5536L464.6144 204.8H870.4a51.2 51.2 0 0 1 51.2 51.2v102.4h48.896a25.6 25.6 0 0 1 25.6 25.6l-0.1024 2.2272-44.7232 514.2016A51.2 51.2 0 0 1 900.2496 947.2H123.7504a51.2 51.2 0 0 1-51.0208-46.7712L28.0064 386.2272a25.6 25.6 0 0 1 23.296-27.7248L52.4032 358.4 102.4 358.4V153.6a51.2 51.2 0 0 1 51.2-51.2h214.7072z m546.304 332.8H109.3632L147.2 870.4h729.5744l37.8368-435.2zM354.688 179.2H179.2v179.2h665.6v-76.8H423.808l-69.12-102.4z" /></svg>