<?xml version="1.0" standalone="no"?><!DOCTYPE svg PUBLIC "-//W3C//DTD SVG 1.1//EN" "http://www.w3.org/Graphics/SVG/1.1/DTD/svg11.dtd"><svg class="icon" width="200px" height="200.00px" viewBox="0 0 1024 1024" version="1.1" xmlns="http://www.w3.org/2000/svg"><path d="M384 51.2c51.456 0 97.4848 23.3728 128 60.0832A165.9648 165.9648 0 0 1 640 51.2h12.8a153.6 153.6 0 0 1 133.0432 230.4256L947.2 281.6a25.6 25.6 0 0 1 25.6 25.6v256h-76.8v358.4a25.6 25.6 0 0 1-25.6 25.6H153.6a25.6 25.6 0 0 1-25.6-25.6V563.2H51.2V307.2a25.6 25.6 0 0 1 25.6-25.6l161.3568 0.0256A153.6 153.6 0 0 1 371.2 51.2h12.8zM204.8 870.4h268.8V563.2H204.8v307.2z m614.4-307.2H550.4v307.2H819.2V563.2z m-345.6-204.8H128v128h345.6v-128zM896 358.4H550.4v128H896v-128z m-243.2-230.4H640a89.6 89.6 0 0 0-89.6 89.6V281.6h102.4a76.8 76.8 0 0 0 76.672-72.2944L729.6 204.8a76.8 76.8 0 0 0-72.2944-76.672L652.8 128zM384 128h-12.8a76.8 76.8 0 0 0 0 153.6h102.4V217.6a89.6 89.6 0 0 0-84.6848-89.472L384 128z" /></svg>