<?xml version="1.0" standalone="no"?><!DOCTYPE svg PUBLIC "-//W3C//DTD SVG 1.1//EN" "http://www.w3.org/Graphics/SVG/1.1/DTD/svg11.dtd"><svg class="icon" width="200px" height="200.00px" viewBox="0 0 1024 1024" version="1.1" xmlns="http://www.w3.org/2000/svg"><path d="M921.6 76.8a25.6 25.6 0 0 1 25.6 25.6v387.9168l-76.8 73.9328V153.6H153.6v351.3344l152.064-108.4416 185.088 222.7456-1.1776 0.896 73.4464 82.1248-61.312 50.3552-209.536-252.16L153.6 599.2448v271.104h419.5328L493.2352 947.2H102.4a25.6 25.6 0 0 1-25.6-25.6V102.4a25.6 25.6 0 0 1 25.6-25.6h819.2zM665.6 230.4a128 128 0 1 1 0 256 128 128 0 0 1 0-256z m0 76.8a51.2 51.2 0 1 0 0 102.4 51.2 51.2 0 0 0 0-102.4zM940.2368 603.52l54.2976 54.3232-135.7568 135.7312 135.7568 135.7824-54.2976 54.3232-135.7824-135.7824-135.7568 135.7824L614.4 929.3568 750.1568 793.6 614.4 657.8432l54.2976-54.3232 135.7568 135.7568 135.7824-135.7568z" /></svg>