<?xml version="1.0" standalone="no"?><!DOCTYPE svg PUBLIC "-//W3C//DTD SVG 1.1//EN" "http://www.w3.org/Graphics/SVG/1.1/DTD/svg11.dtd"><svg class="icon" width="200px" height="200.00px" viewBox="0 0 1024 1024" version="1.1" xmlns="http://www.w3.org/2000/svg"><path d="M512 76.8c254.4896 0 460.8 183.3728 460.8 409.6s-206.3104 409.6-460.8 409.6c-42.4192 0-83.5072-5.0944-122.5216-14.6432L215.04 957.2352A25.6 25.6 0 0 1 179.2 933.76v-164.0448C99.9168 696.1408 51.2 596.3264 51.2 486.4c0-226.2272 206.3104-409.6 460.8-409.6z m0 76.8C298.0352 153.6 128 304.7424 128 486.4c0 85.0432 37.0688 165.4272 103.424 227.0208l24.576 22.784v119.4496l126.592-55.04 25.1392 6.144C441.344 814.976 476.3136 819.2 512 819.2c213.9648 0 384-151.1424 384-332.8S725.9648 153.6 512 153.6z m0 409.6v76.8h-230.4v-76.8h230.4z m230.4-204.8v76.8H281.6v-76.8h460.8z" /></svg>