<?xml version="1.0" standalone="no"?><!DOCTYPE svg PUBLIC "-//W3C//DTD SVG 1.1//EN" "http://www.w3.org/Graphics/SVG/1.1/DTD/svg11.dtd"><svg class="icon" width="200px" height="200.00px" viewBox="0 0 1024 1024" version="1.1" xmlns="http://www.w3.org/2000/svg"><path d="M76.8 921.6V384h208.9984l181.76-311.9872a25.6 25.6 0 0 1 34.816-9.344l140.0576 80.1024a25.6 25.6 0 0 1 11.136 31.5392l-61.8496 158.1824H940.288a25.6 25.6 0 0 1 24.8832 31.616l-129.8688 537.9072a25.6 25.6 0 0 1-24.8832 19.584H76.8z m179.1744-460.8H153.6v384h102.3744V460.8z m252.3648-306.2528L332.8 455.8592V844.8h437.2736l105.1648-435.5072h-396.032l86.7328-221.7984-57.6-32.9472z" /></svg>