<svg class="icon" width="200" height="200" viewBox="0 0 1024 1024" xmlns="http://www.w3.org/2000/svg"><path d="M435.2 76.8c197.94 0 358.4 160.46 358.4 358.4a356.864 356.864 0 0 1-78.029 223.258l253.107 253.081-54.297 54.272-252.8-252.749A356.915 356.915 0 0 1 435.2 793.6c-197.94 0-358.4-160.46-358.4-358.4S237.26 76.8 435.2 76.8zm0 76.8c-155.52 0-281.6 126.08-281.6 281.6s126.08 281.6 281.6 281.6 281.6-126.08 281.6-281.6c0-153.062-122.112-277.58-274.227-281.498l-7.373-.102zm38.4 128v115.2h115.2v76.8H473.6v115.2h-76.8V473.6H281.6v-76.8h115.2V281.6h76.8z"/></svg>