<?xml version="1.0" standalone="no"?><!DOCTYPE svg PUBLIC "-//W3C//DTD SVG 1.1//EN" "http://www.w3.org/Graphics/SVG/1.1/DTD/svg11.dtd"><svg class="icon" width="200px" height="200.00px" viewBox="0 0 1024 1024" version="1.1" xmlns="http://www.w3.org/2000/svg"><path d="M51.2 896h921.6v76.8H51.2zM765.696 94.1056l36.1984 36.1984a127.8208 127.8208 0 0 1 4.48 176.3072l-4.4032 4.6336-520.4224 519.3472-221.824 5.6832 4.608-222.8992L584.6016 94.0288a128.3328 128.3328 0 0 1 181.0944 0.0768z m-261.12 188.3136L140.4672 645.8624l-2.304 111.5904 110.7968-2.8416 364.288-363.52-108.672-108.672z m134.272-134.0416l-79.9232 79.7952 108.672 108.672 78.7712-78.5664 3.0976-3.2256a51.0464 51.0464 0 0 0-1.8688-70.4512l-36.1216-36.096a51.5072 51.5072 0 0 0-72.6272-0.128z" /></svg>