<?xml version="1.0" standalone="no"?><!DOCTYPE svg PUBLIC "-//W3C//DTD SVG 1.1//EN" "http://www.w3.org/Graphics/SVG/1.1/DTD/svg11.dtd"><svg class="icon" width="200px" height="200.00px" viewBox="0 0 1024 1024" version="1.1" xmlns="http://www.w3.org/2000/svg"><path d="M998.4 140.8v742.4H25.6v-742.4h972.8z m-76.8 76.8H102.4v588.8h819.2v-588.8z m-576 102.4a115.2 115.2 0 0 1 59.136 214.0928 192.0768 192.0768 0 0 1 132.4544 169.9072h-66.816a125.44 125.44 0 0 0-249.5744 0H154.0096a192.128 192.128 0 0 1 132.4544-169.9328A115.2 115.2 0 0 1 345.6 320z m499.2 230.4v66.56H588.8v-66.56h256z m-499.2-163.84a48.64 48.64 0 1 0 0 97.28 48.64 48.64 0 0 0 0-97.28z m396.8 10.24v66.56h-153.6v-66.56h153.6z" /></svg>