<?xml version="1.0" standalone="no"?><!DOCTYPE svg PUBLIC "-//W3C//DTD SVG 1.1//EN" "http://www.w3.org/Graphics/SVG/1.1/DTD/svg11.dtd"><svg class="icon" width="200px" height="200.00px" viewBox="0 0 1024 1024" version="1.1" xmlns="http://www.w3.org/2000/svg"><path d="M921.6 947.2a25.6 25.6 0 0 1-25.6 25.6H128a25.6 25.6 0 0 1-25.6-25.6V76.8a25.6 25.6 0 0 1 25.6-25.6h512.1536L921.6 333.568V947.2zM563.2 128H179.2v768h665.6V409.6H563.2V128z m-33.8176 365.5936c80 1.9968 121.4976 37.0176 124.4928 105.0112 1.024 72.9856-43.008 109.4912-131.9936 109.4912h-55.5008v116.992h-75.008V493.5936h137.984z m-13.4912 58.496h-49.5104v99.0208h49.5104c38.9888-1.024 58.9824-17.5104 59.9808-49.5104-0.9984-32-20.992-48.512-59.9808-49.5104zM640 159.8208V332.8h172.3904L640 159.8208z" /></svg>