<?xml version="1.0" standalone="no"?><!DOCTYPE svg PUBLIC "-//W3C//DTD SVG 1.1//EN" "http://www.w3.org/Graphics/SVG/1.1/DTD/svg11.dtd"><svg class="icon" width="200px" height="200.00px" viewBox="0 0 1024 1024" version="1.1" xmlns="http://www.w3.org/2000/svg"><path d="M70.5792 508.544l185.6 93.2352-79.2832 37.376a357.4784 357.4784 0 0 0 218.4192 211.712c187.136 64.4608 391.1168-35.0208 455.552-222.1824l72.6272 25.0112c-78.2592 227.2512-325.9136 348.0576-553.1904 269.7984A434.2272 434.2272 0 0 1 107.264 672L24.1152 711.2192l46.464-202.6752z m781.2864 117.248l72.832 24.3712-1.1776 3.4304-72.6272-24.96 0.9728-2.8672zM103.2704 362.496C184.448 140.288 429.056 23.168 653.6704 100.5056a434.2272 434.2272 0 0 1 262.8864 251.0336l78.9504-37.2224-46.4384 202.6752-185.6-93.2608 83.456-39.3728a357.4784 357.4784 0 0 0-218.24-211.2256C441.5232 108.672 237.568 208.1792 173.1072 395.3408l-0.4864 1.4336-72.704-24.6784z" /></svg>