<?xml version="1.0" standalone="no"?><!DOCTYPE svg PUBLIC "-//W3C//DTD SVG 1.1//EN" "http://www.w3.org/Graphics/SVG/1.1/DTD/svg11.dtd"><svg class="icon" width="200px" height="200.00px" viewBox="0 0 1024 1024" version="1.1" xmlns="http://www.w3.org/2000/svg"><path d="M512 51.2a217.6 217.6 0 1 1 0 435.2 217.6 217.6 0 0 1 0-435.2z m0 76.8a140.8 140.8 0 1 0 0 281.6 140.8 140.8 0 0 0 0-281.6z m0 409.6c96.64 0 186.3424 29.7472 260.4288 80.5888l-42.9568 63.6928a382.08 382.08 0 0 0-209.4336-67.4048L512 614.4c-193.28 0-353.2288 142.7968-380.032 328.6528L131.3792 947.2H54.016c25.4464-230.4 220.8-409.6 457.984-409.6z m371.2 153.6v89.6H972.8v76.8h-89.6V947.2h-76.8v-89.6H716.8v-76.8h89.6V691.2h76.8z" /></svg>