<svg class="icon" width="200" height="200" viewBox="0 0 1024 1024" xmlns="http://www.w3.org/2000/svg"><path d="M512 76.8c240.358 0 435.2 194.842 435.2 435.2 0 107.955-39.296 206.72-104.397 282.778l-94.182-193.101 100.557 32.077C862.925 595.764 870.4 554.752 870.4 512c0-197.94-160.46-358.4-358.4-358.4S153.6 314.06 153.6 512 314.06 870.4 512 870.4c91.392 0 174.797-34.202 238.106-90.522l34.739 71.194A433.382 433.382 0 0 1 512 947.2C271.642 947.2 76.8 752.358 76.8 512S271.642 76.8 512 76.8z"/></svg>