<?xml version="1.0" standalone="no"?><!DOCTYPE svg PUBLIC "-//W3C//DTD SVG 1.1//EN" "http://www.w3.org/Graphics/SVG/1.1/DTD/svg11.dtd"><svg class="icon" width="200px" height="200.00px" viewBox="0 0 1024 1024" version="1.1" xmlns="http://www.w3.org/2000/svg"><path d="M742.4 384a51.2 51.2 0 0 1 51.2 51.2v460.8a51.2 51.2 0 0 1-51.2 51.2H153.6a51.2 51.2 0 0 1-51.2-51.2V435.2a51.2 51.2 0 0 1 51.2-51.2z m-25.6 76.8H179.2v409.6h537.6V460.8zM514.7648 71.68l54.3232 54.2976-36.5568 36.5568A473.856 473.856 0 0 1 958.208 477.3376l-72.3968 25.6256A397.056 397.056 0 0 0 538.0096 239.744l31.0784 31.0528-54.3232 54.2976-126.72-126.72 126.72-126.6944z" /></svg>