<?xml version="1.0" standalone="no"?><!DOCTYPE svg PUBLIC "-//W3C//DTD SVG 1.1//EN" "http://www.w3.org/Graphics/SVG/1.1/DTD/svg11.dtd"><svg class="icon" width="200px" height="200.00px" viewBox="0 0 1024 1024" version="1.1" xmlns="http://www.w3.org/2000/svg"><path d="M208.0512 76.8a25.6 25.6 0 0 1 25.3696 22.1184l18.3552 134.272h664.6528a25.6 25.6 0 0 1 25.1648 30.2848l-80.128 432.384a25.6 25.6 0 0 1-25.1648 20.9408H263.1936a25.6 25.6 0 0 1-25.3952-22.3744l-6.656-52.3776H230.4L168.5248 153.6H51.2V76.8h156.8512z m646.8096 233.216h-588.288L308.3008 640h485.376l61.184-329.984zM307.2 742.4a102.4 102.4 0 1 1 0 204.8 102.4 102.4 0 0 1 0-204.8z m0 66.56a35.84 35.84 0 1 0 0 71.68 35.84 35.84 0 0 0 0-71.68zM793.6 742.4a102.4 102.4 0 1 1 0 204.8 102.4 102.4 0 0 1 0-204.8z m0 66.56a35.84 35.84 0 1 0 0 71.68 35.84 35.84 0 0 0 0-71.68z" /></svg>