<svg class="icon" width="200" height="200" viewBox="0 0 1024 1024" xmlns="http://www.w3.org/2000/svg"><path d="M512 51.2c254.49 0 460.8 206.31 460.8 460.8S766.49 972.8 512 972.8 51.2 766.49 51.2 512 257.51 51.2 512 51.2zm0 76.8c-212.07 0-384 171.93-384 384s171.93 384 384 384 384-171.93 384-384-171.93-384-384-384zm150.22 481.74 64.385 41.908A255.795 255.795 0 0 1 512 768a255.744 255.744 0 0 1-212.531-113.254l63.744-42.804A179.02 179.02 0 0 0 512 691.2a179.046 179.046 0 0 0 150.22-81.46zM358.4 358.4a51.2 51.2 0 1 1 0 102.4 51.2 51.2 0 0 1 0-102.4zm307.2 0a51.2 51.2 0 1 1 0 102.4 51.2 51.2 0 0 1 0-102.4z"/></svg>