<?xml version="1.0" standalone="no"?><!DOCTYPE svg PUBLIC "-//W3C//DTD SVG 1.1//EN" "http://www.w3.org/Graphics/SVG/1.1/DTD/svg11.dtd"><svg class="icon" width="200px" height="200.00px" viewBox="0 0 1024 1024" version="1.1" xmlns="http://www.w3.org/2000/svg"><path d="M550.4 25.6v104.2944c181.4272 18.0224 325.6832 162.304 343.7056 343.7056H998.4v76.8h-104.2944c-18.0224 181.4272-162.304 325.6832-343.68 343.7056L550.4 998.4h-76.8v-104.2944C292.1984 876.0832 147.9168 731.8272 129.8944 550.4L25.6 550.4v-76.8h104.2944c18.0224-181.4272 162.304-325.6832 343.7056-343.7056V25.6h76.8zM512 204.8C342.3488 204.8 204.8 342.3488 204.8 512s137.5488 307.2 307.2 307.2 307.2-137.5488 307.2-307.2S681.6512 204.8 512 204.8z m0 153.6a153.6 153.6 0 1 1 0 307.2 153.6 153.6 0 0 1 0-307.2z m0 76.8a76.8 76.8 0 1 0 0 153.6 76.8 76.8 0 0 0 0-153.6z" /></svg>