<?xml version="1.0" standalone="no"?><!DOCTYPE svg PUBLIC "-//W3C//DTD SVG 1.1//EN" "http://www.w3.org/Graphics/SVG/1.1/DTD/svg11.dtd"><svg class="icon" width="200px" height="200.00px" viewBox="0 0 1024 1024" version="1.1" xmlns="http://www.w3.org/2000/svg"><path d="M831.2576 537.6l181.0176 181.0176-54.2976 54.2976L870.4 685.3632v258.3552h-76.8V683.8528l-89.0624 89.088L650.24 718.592 831.2576 537.6zM537.6 102.4c183.808 0 332.8 148.992 332.8 332.8 0 8.6272-0.3328 17.152-0.9728 25.6h-77.0816c0.8192-8.448 1.2544-16.9728 1.2544-25.6 0-141.3888-114.6112-256-256-256l-7.0656 0.1024c-131.6864 3.584-239.488 106.9312-248.3456 238.3616l-4.1216 61.312-60.7232 9.4208A166.4512 166.4512 0 0 0 76.8 652.8l0.1024 6.016a166.4 166.4 0 0 0 157.4656 160.1536L238.848 819.2H588.8v76.8H230.4v-0.3328c-128.3584-6.656-230.4-112.8448-230.4-242.8672 0-121.4976 89.088-222.208 205.568-240.2816C217.216 239.2832 361.4208 102.4 537.6 102.4z" /></svg>