<?xml version="1.0" standalone="no"?><!DOCTYPE svg PUBLIC "-//W3C//DTD SVG 1.1//EN" "http://www.w3.org/Graphics/SVG/1.1/DTD/svg11.dtd"><svg class="icon" width="200px" height="200.00px" viewBox="0 0 1024 1024" version="1.1" xmlns="http://www.w3.org/2000/svg"><path d="M921.6 947.2a25.6 25.6 0 0 1-25.6 25.6H128a25.6 25.6 0 0 1-25.6-25.6V76.8a25.6 25.6 0 0 1 25.6-25.6h512.1536L921.6 333.568V947.2zM563.2 128H179.2v768h665.6V409.6H563.2V128z m-192.3072 365.5936l37.504 222.0032c0.8704 4.3776 1.7408 12.2112 2.6368 23.4752l0.3584 4.9664v-0.64c0.1024-1.536 0.6144 2.2016 1.5104 11.2128h1.4848c2.0224-15.0016 4.0192-28.0064 6.016-39.0144l50.9952-222.0032h79.5136l53.9904 225.024c0 0.9728 0.512 2.9696 1.4848 5.9904 2.0224 11.9808 3.0208 22.016 3.0208 30.0032h1.4848c1.024-12.032 2.5088-24.4992 4.5056-37.504l35.9936-223.488h75.008L654.3872 825.088h-83.968l-51.0208-211.4816a196.2496 196.2496 0 0 1-5.9904-37.504c-1.024 16-2.9952 28.4928-6.016 37.504l-54.016 211.4816h-86.9888L294.4 493.5936h76.4928zM640 159.8208V332.8h172.3904L640 159.8208z" /></svg>