<?xml version="1.0" standalone="no"?><!DOCTYPE svg PUBLIC "-//W3C//DTD SVG 1.1//EN" "http://www.w3.org/Graphics/SVG/1.1/DTD/svg11.dtd"><svg class="icon" width="200px" height="200.00px" viewBox="0 0 1024 1024" version="1.1" xmlns="http://www.w3.org/2000/svg"><path d="M369.536 28.416c10.3936 8.2432 4.0704 17.6128 0 25.6a1421.6704 1421.6704 0 0 0-55.3216 136.8832l-1.8944 5.7088c-13.4912 49.92-23.5008 74.9312-37.8112 129.2032-17.152 63.744-33.6128 127.232-44.1344 192.4864-6.4768 37.8368-17.664 84.224-19.968 122.0864 4.5824-1.6384 21.5808-17.1008 44.288-32 37.632-24.9856 82.304-57.3952 114.56-75.3152a172.7232 172.7232 0 0 1 46.4384-20.48 13.44 13.44 0 0 1 13.696 3.328c3.584 3.584 4.864 8.9088 3.3024 13.7728a129.1264 129.1264 0 0 1-16.9984 44.2112 133.0432 133.0432 0 0 0-22.8096 43.5456c-6.0928 14.7968-27.264 66.7392-7.9616 44.3648 6.4-6.9888 12.032-14.6688 16.7168-22.9376 6.2208-6.784 9.984-9.6256 14.464-1.2032 8.0896 15.5904-30.5152 78.3872-60.0832 91.9552-9.0368 4.096-13.7472 3.4048-18.8928-3.3792-4.3008-4.864-6.912-11.008-7.424-17.5104 1.9968-12.3392 8.2944-30.6432 15.1552-49.92l3.2-8.9344 1.6128-4.48 3.1744-8.96c12.9792-37.0944 22.8352-70.7328 3.072-65.536-27.008 6.528-98.1504 67.0208-142.6688 114.0992l-15.7952 18.176c-0.9472 36.48-12.288 71.7568-15.5392 108.544-3.6352 41.8816-9.728 83.5328-10.496 125.8496-0.2816 13.44 4.3008 31.3344-12.16 37.0432-19.456 6.656-44.9536-42.1888-51.3024-50.9952-16.0512-27.136-21.5808-52.9152-35.072-80.0512-5.2736-11.1104-5.9392-26.1632-13.5168-36.608a77.9264 77.9264 0 0 1-7.552-35.1488c2.56-16 84.6336-75.5456 98.1248-87.3472 6.4512-5.9136 14.8992-14.2336 19.4816-18.816l3.328-3.3024s2.9696-15.744 4.864-31.0528c1.8688-15.36-4.1984-7.7312-11.6224 0-18.3552 18.9696-32.9216 41.7792-53.9904 60.4928-4.0448 1.7664-9.2928 0-13.4912 0-19.968-10.8544-21.4528-21.0176-14.848-43.008 5.2992-20.608 9.472-41.472 12.544-62.5408 1.8944-20.3264 4.0704-40.704 5.2736-61.0304a104.448 104.448 0 0 0-1.2032-29.0304 30.5152 30.5152 0 0 0-13.8496-20.5824 30.2336 30.2336 0 0 0-24.4992-3.4304c-6.144 1.7408-12.416 3.072-18.7392 3.9424a17.536 17.536 0 0 1-17.9712-11.392 15.232 15.232 0 0 1 5.6832-17.5104c17.664-12.3392 37.12-23.04 59.392-18.048 23.0656 4.352 40.704 23.2448 43.5712 46.6688 4.4032 17.5104 6.9376 35.4048 7.5776 53.4528a347.3152 347.3152 0 0 1-7.5776 69.4528c0.4096 11.1104 12.4416-0.8192 16.4864-6.784a420.7872 420.7872 0 0 0 65.7152-166.4512c0.9472-5.2736 2.304-10.4448 3.5072-15.7184 11.6224-42.0608 22.9632-84.1216 34.816-126.0288 4.352-15.3344 15.9488-52.0192 15.9488-60.6976 2.6368-16.8448 6.8096-33.4336 12.416-49.5104 10.7264-30.4128 19.712-61.3888 27.008-92.8a108.5696 108.5696 0 0 1 30.8992-48.2816 20.992 20.992 0 0 1 28.8768-4.0704z m-209.8944 696.32c-23.7312 16.1792-46.08 34.3296-66.816 54.272a25.472 25.472 0 0 0-3.2256 25.9072 407.04 407.04 0 0 0 43.4688 63.232c0-0.1536 3.2256-8.5504 3.2256-8.5504 12.544-23.1936 10.9312-49.92 15.2576-74.88 0.9472-5.8368 1.8944-12.9024 2.9696-19.4048 1.0752-7.7312 4.736-32.6912 5.12-40.5504zM566.784 295.68a20.2752 20.2752 0 0 1 0 30.336c-12.1856 11.6224-13.2608 16.6912-21.9904 38.3488-19.3024 48.2304-28.928 99.7888-42.3424 149.76-5.376 24.576-10.6752 49.152-15.9488 73.728-1.4848 7.2192-2.816 14.4128-4.1472 21.632-2.9696 15.8976 6.2976 20.0448 19.712 20.0448a228.6592 228.6592 0 0 0 46.4896-47.1552c28.544-31.6672 43.5712-54.784 70.3744-81.4848a25.8816 25.8816 0 0 1 37.2736-5.0944c17.664 8.832-4.1728 31.6672-11.264 40.0896-19.3024 22.4512-12.2112 14.1568-36.1984 40.064-19.456 20.4544-45.312 49.8432-67.0208 71.0656 42.0608-4.096 83.712-11.648 124.5184-22.5536 6.1696-1.8688 17.408-7.7568 18.2272-1.8688a56.576 56.576 0 0 1 0 15.744 45.1584 45.1584 0 0 1-4.5568 16.8448 16.0512 16.0512 0 0 0-1.7152 3.072 588.544 588.544 0 0 1 42.4448-38.0416l-1.6384-3.3792c-7.936-13.4144-26.1632-11.8272-36.096-19.072-10.7008-7.7824-28.416-10.3936-24.4224-29.4144 2.6112-12.4416 13.44-13.2608 39.3728-4.224 2.048 0.6656 4.2496 1.3568 6.1696 2.176 50.304 21.376 72.704-7.2448 81.1264-19.6352l1.6384-2.4576a12.3392 12.3392 0 0 1 2.048-2.6624c41.6-50.0992 94.1568-58.0352 153.4208-39.2704 12.4928 4.096 24.0128 9.984 24.0128 26.3936 3.84 27.904-11.1104 45.0304-33.4592 57.6-21.8368 12.3136-46.08 19.7376-71.0912 21.76-18.2528 1.3824-36.5056 5.4784-54.8864 6.8608-36.2496 2.5856-63.5392 24.064-85.504 47.744-4.7872 5.12-10.1632 10.6496-15.5392 16.2304l-6.4512 6.7584c-16.9984 18.048-31.744 36.096-25.088 46.1056 29.3632 17.5104 79.616 6.8352 118.2976-9.856 70.656-30.208 132.3008-57.1904 185.1136-126.976 15.36-20.224 26.2144-6.9632 20.3264 13.0048-12.7744 42.1376-45.568 68.4032-79.3344 91.9552-58.88 40.3712-122.5472 68.9664-197.3248 72.2432a117.7856 117.7856 0 0 1-54.3488-6.016 39.2704 39.2704 0 0 1-28.8256-42.9824c3.0208-18.4576 11.136-27.648 24.832-49.2544l4.096-4.3008a10.5984 10.5984 0 0 1-5.376-2.2016c-45.7216 0.768-91.1872 6.9888-135.424 18.56a51.584 51.584 0 0 0-40.192 31.9232c-5.7856 12.544-14.4128 23.552-25.1904 32.2048-4.6848 4.4032-8.9856 9.472-16.3584 6.528a17.2288 17.2288 0 0 1-11.136-17.6128c1.7408-28.5952 2.1504-57.4464 6.4512-85.632a256 256 0 0 1 15.8208-71.2192l2.6368-15.0016c4.2496-25.088 7.7312-50.3552 14.7712-74.624 9.2672-31.6672 17.3056-63.1808 24.3968-95.3856 5.888-27.776 22.784-52.48 26.8032-81.2032 3.3024-7.424 7.8336-14.2592 13.4144-20.1728 6.2976-4.0192 20.7872-8.832 29.0816 0z m340.6336 231.6288c-37.3248 12.16-76.288 19.1488-103.0656 52.9408 43.776-2.176 82.3296-13.824 109.7728-50.7648zM427.52 411.3664c6.016 7.7568 7.5008 18.5088 3.7888 27.8016-4.352 12.1856-14.592 20.7872-26.624 22.4a31.9744 31.9744 0 0 1-30.9248-14.6432 31.3856 31.3856 0 0 1 1.2288-30.464c15.0272-19.6608 35.9168-23.0656 52.5312-5.0944z" /></svg>