<?xml version="1.0" standalone="no"?><!DOCTYPE svg PUBLIC "-//W3C//DTD SVG 1.1//EN" "http://www.w3.org/Graphics/SVG/1.1/DTD/svg11.dtd"><svg class="icon" width="200px" height="200.00px" viewBox="0 0 1024 1024" version="1.1" xmlns="http://www.w3.org/2000/svg"><path d="M921.6 76.8a25.6 25.6 0 0 1 25.6 25.6v819.2a25.6 25.6 0 0 1-25.6 25.6H102.4a25.6 25.6 0 0 1-25.6-25.6V102.4a25.6 25.6 0 0 1 25.6-25.6h819.2z m-51.2 76.8H153.6v376.9344l152.064-108.4416 206.336 248.32L642.6368 563.2 870.4 765.9776V153.6z m-192 102.4a89.6 89.6 0 1 1 0 179.2 89.6 89.6 0 0 1 0-179.2z" /></svg>