<?xml version="1.0" standalone="no"?><!DOCTYPE svg PUBLIC "-//W3C//DTD SVG 1.1//EN" "http://www.w3.org/Graphics/SVG/1.1/DTD/svg11.dtd"><svg class="icon" width="200px" height="200.00px" viewBox="0 0 1024 1024" version="1.1" xmlns="http://www.w3.org/2000/svg"><path d="M563.2 51.2v358.4h358.4v512a51.2 51.2 0 0 1-51.2 51.2H153.6a51.2 51.2 0 0 1-51.2-51.2V102.4a51.2 51.2 0 0 1 51.2-51.2h409.6z m-169.2928 467.9936h-137.984v331.52h74.9824v-116.992h55.5008c88.9856 0 132.992-36.5312 131.9936-109.5168-2.9952-67.9936-44.4928-103.0144-124.4928-105.0112z m262.0928 128.8192h-39.168v80c-6.4-13.3376-17.8944-20.5568-34.432-21.6064-38.912-0.5376-58.112 22.656-57.6 69.5808 1.6128 39.4752 19.2 60.288 52.8128 62.4128 19.712 0 32.7936-6.4 39.1936-19.2v16h39.1936v-187.2128z m103.0912-1.6128c-32.512-1.6128-48.256 14.4128-47.1808 48v15.2064h-20.8128v29.5936h20.8128v96.7936h38.4v-96.7936h27.9808v-29.5936H750.336v-16c0-11.7504 5.5808-17.6128 16.7936-17.6128 4.7872 0 9.6 1.0752 14.3872 3.2l11.2128-27.9808c-9.0624-3.2-20.2752-4.8128-33.6128-4.8128z m-167.0912 90.3936c16 1.0752 24.5504 10.9312 25.6 29.6192v6.4c0 24.5248-8.7808 36.7872-26.368 36.7872-17.6128-0.512-26.6752-12.544-27.2128-35.9936 0.512-24.0128 9.856-36.2752 27.9808-36.8128z m-211.6096-159.104c39.0144 1.024 59.008 17.5104 60.0064 49.5104-0.9984 32-20.992 48.512-60.0064 49.5104h-49.4848v-99.0208zM640.1536 51.2L920.832 332.8H640V51.2z" /></svg>