<?xml version="1.0" standalone="no"?><!DOCTYPE svg PUBLIC "-//W3C//DTD SVG 1.1//EN" "http://www.w3.org/Graphics/SVG/1.1/DTD/svg11.dtd"><svg class="icon" width="200px" height="200.00px" viewBox="0 0 1024 1024" version="1.1" xmlns="http://www.w3.org/2000/svg"><path d="M563.2 51.2v358.4h358.4v512a51.2 51.2 0 0 1-51.2 51.2H153.6a51.2 51.2 0 0 1-51.2-51.2V102.4a51.2 51.2 0 0 1 51.2-51.2h409.6z m-41.216 467.9936H384v331.52h75.008v-116.992h55.5008c88.9856 0 132.992-36.5312 131.9936-109.5168-2.9952-67.9936-44.4928-103.0144-124.4928-105.0112z m-13.4912 58.496c39.0144 1.024 59.008 17.5104 60.0064 49.5104-0.9984 32-20.992 48.512-60.0064 49.5104H459.008v-99.0208zM640.1536 51.2L920.832 332.8H640V51.2z" /></svg>