<?xml version="1.0" standalone="no"?><!DOCTYPE svg PUBLIC "-//W3C//DTD SVG 1.1//EN" "http://www.w3.org/Graphics/SVG/1.1/DTD/svg11.dtd"><svg class="icon" width="200px" height="200.00px" viewBox="0 0 1024 1024" version="1.1" xmlns="http://www.w3.org/2000/svg"><path d="M512 51.2A204.8 204.8 0 0 1 716.8 256v25.6h129.818a25.6 25.6 0 0 1 25.548 23.706l47.386 640a25.6 25.6 0 0 1-25.523 27.494H129.97a25.6 25.6 0 0 1-25.523-27.494l47.386-640a25.6 25.6 0 0 1 25.574-23.706H307.2V256A204.8 204.8 0 0 1 512 51.2zM345.6 384a51.2 51.2 0 1 0 0 102.4 51.2 51.2 0 0 0 0-102.4z m332.8 0a51.2 51.2 0 1 0 0 102.4 51.2 51.2 0 0 0 0-102.4zM512 128a128 128 0 0 0-128 128v25.6h256V256a128 128 0 0 0-128-128z" /></svg>