<?xml version="1.0" encoding="UTF-8"?>
<svg width="38px" height="22px" viewBox="0 0 38 22" version="1.1" xmlns="http://www.w3.org/2000/svg" xmlns:xlink="http://www.w3.org/1999/xlink">
    <title>logo备份 13</title>
    <g id="页面-1" stroke="none" stroke-width="1" fill="none" fill-rule="evenodd">
        <g id="Large" transform="translate(-32.000000, -19.000000)" fill-rule="nonzero">
            <g id="logo备份-13" transform="translate(32.000000, 19.000000)">
                <polygon id="路径" fill="#2B5AED" points="12.7253354 0 23 0 10.2928177 22 0 22"></polygon>
                <path d="M26.7130723,0.000175219681 C32.9466704,0.000175219681 38,4.92500375 38,11.0000876 C38,17.0751715 32.9466704,22 26.7130723,22 L13.840378,22 C13.5577719,22 13.2775918,21.9898778 13.0001983,21.969985 L18.3933411,12.909 L26.7130723,12.9091633 C27.7949365,12.9091633 28.6719606,12.054441 28.6719606,11.0000876 C28.6719606,9.94573421 27.7949365,9.09101191 26.7130723,9.09101191 L20.6663411,9.091 L26.0783411,0 L26.7130723,0.000175219681 Z" id="形状结合" fill="#FFB819"></path>
                <polygon id="路径" fill="#2B5AED" transform="translate(5.000000, 4.500000) scale(1, -1) translate(-5.000000, -4.500000) " points="5.00881834 0 10 9 0 9"></polygon>
            </g>
        </g>
    </g>
</svg>