<svg class="icon" viewBox="0 0 1024 1024" xmlns="http://www.w3.org/2000/svg" width="200" height="200"><path d="M688.9 881.9H336.4v11.9c0 12.7-4.7 24.6-13.8 33.6-9 9-20.8 13.8-33.6 13.8-12.7 0-24.6-5.2-33.6-13.8-9-8.4-13.6-20.8-13.6-33.6v-11.9h-23.3c-85.3 0-154.4-63.6-154.4-142V365.7c0-78.1 69.1-142 154.4-142H388l-91-81c-16.5-14.7-17.6-30.3-2.9-46.9 14.7-16.5 30.3-17.6 46.9-2.9l146.3 130.7h49.2L683.1 92.8c16.5-14.7 32.1-13.8 46.9 2.9 14.7 16.5 13.8 32.1-2.9 46.9l-91 81.5h170.6c43.6 0 85.3 17.1 114.2 46.5 25.5 25.1 39.9 59.6 39.3 95.7v374.2c0 78.1-69.1 142-154.4 142h-23.2v11.9c0 12.7-4.7 24.6-13.8 33.6-9 9-20.8 13.8-33.6 13.8-12.7 0-24.6-4.7-33.6-13.8-9-9-13.8-20.8-13.8-33.6V882h1.1zM562.5 717.6c7.2 0 14.2-2.3 19.9-6.6l42.6-31.8c6.6-3.8 9.9-11 9.5-18.5-.5-7.5-5.2-13.6-12.4-16.5-7.2-2.9-14.7-1.4-20.3 3.8l-37.9 28.4-27.5-33.6c-6.1-7.5-15.6-12.4-25.5-12.4s-19.4 4.3-25.5 11.9l-28 33.2-32.7-26.9c-5.2-4.7-12.7-6.1-19.4-3.8-6.6 2.3-11.3 8.1-12.4 15.1-.9 7.2 2 14.2 7.2 18.5l37 30.7c14.2 11.3 34.7 9.5 46.5-4.3l26.9-32.1 26.6 32.7c5.8 7.4 15.3 12.2 25.4 12.2zM397.1 499.3c16.2-3.8 26.9-19.9 23.2-35.9-1.4-8.1-6.1-15.1-13.3-19.4-6.6-4.3-15.1-5.7-23.2-4.3l-149.2 34.1c-16.5 3.2-26.9 19.9-23.2 35.9 3.2 16.5 19.9 26.9 35.9 23.2l149.8-33.6zm231.1 0l149.2 34.1c10.4 2.3 21.7-1.4 28.9-9.5 7.2-8.1 9.5-19.4 6.1-29.8-3.2-10.4-11.9-18-22.8-20.3l-149.2-34.1c-8.1-2-16.2-.5-23.2 4.3-6.6 4.3-11.3 11.3-13.3 19.4-2.7 15.4 8.3 31.9 24.3 35.9zm0 0"/></svg>