<?xml version="1.0" standalone="no"?><!DOCTYPE svg PUBLIC "-//W3C//DTD SVG 1.1//EN" "http://www.w3.org/Graphics/SVG/1.1/DTD/svg11.dtd"><svg class="icon" width="200px" height="200.00px" viewBox="0 0 1024 1024" version="1.1" xmlns="http://www.w3.org/2000/svg"><path d="M870.2976 144.0256l51.2 51.2-122.88 122.88a514.304 514.304 0 0 1 170.7264 193.8688C885.0432 679.04 711.8848 793.6 512 793.6c-56.832 0-111.488-9.2672-162.56-26.3424L197.4016 919.296l-51.2-51.2L870.2976 144.0256z m-184.32 286.6688l-60.6208 60.672a115.2 115.2 0 0 1-134.016 133.9904l-60.6208 60.6464a192 192 0 0 0 255.2576-255.3088zM512 230.4c49.664 0 97.664 7.0656 143.0528 20.2496l-79.9488 79.9488a192 192 0 0 0-244.48 244.48l-120.32 120.2432a514.2528 514.2528 0 0 1-155.648-183.296C138.9568 344.96 312.1152 230.4 512 230.4z m-3.2 166.4512l-111.9488 111.9744 0.0768-2.2528a115.2 115.2 0 0 1 111.872-109.7216z" /></svg>