<svg class="icon" viewBox="0 0 7702 1024" xmlns="http://www.w3.org/2000/svg" width="361.031" height="48"><path d="M816.826 508.735c0 98.942-17.81 185.403-53.427 259.413-35.617 74.01-86.476 131.191-152.56 171.558-66.086 40.366-143.465 60.55-232.107 60.55H2.374V16.027h376.358c88.642 0 166.021 20.376 232.106 61.143 66.085 40.767 116.944 98.349 152.561 172.744 35.618 74.396 53.427 160.68 53.427 258.82zm-185.21 0c0-102.89-25.334-184.617-75.985-245.166-50.65-60.55-121.099-90.825-211.33-90.825H188.772v671.982h155.53c90.23 0 160.678-30.275 211.33-90.825 50.65-60.55 75.983-142.276 75.983-245.166zm1123.134-335.99v233.887h391.791v155.53h-391.79v282.564h420.284v155.53h-606.683V16.027h606.683v156.716H1754.75zm1173 112.788c0-55.4 13.653-104.67 40.96-147.812 27.306-43.142 66.678-76.77 118.13-100.916C3138.294 12.659 3198.843.594 3268.49.594c88.642 0 161.465 17.615 218.453 52.832s96.167 86.476 117.537 153.748l-148.406 68.86c-15.033-38.778-36.997-68.073-65.892-87.855-28.895-19.783-67.866-29.682-116.944-29.682-53.025 0-92.798 10.092-119.318 30.275-26.52 20.183-39.773 49.672-39.773 88.45 0 37.205 13.847 65.7 41.554 85.482 27.707 19.782 76.384 36.018 146.031 48.677 111.601 19.782 192.735 54.213 243.386 103.29 50.65 49.078 75.983 117.137 75.983 204.207 0 56.988-15.24 108.232-45.709 153.748-30.467 45.516-73.208 80.926-128.222 106.259-55.014 25.333-117.345 37.992-186.991 37.992-96.568 0-176.9-19.783-241.011-59.363-64.112-39.58-106.853-95.766-128.223-168.589l149.593-70.047c14.247 45.902 39.966 80.732 77.171 104.477 37.205 23.745 84.294 35.618 141.282 35.618s100.323-11.68 130.004-35.024 44.522-56.795 44.522-100.322c0-41.153-15.628-73.61-46.897-97.355-31.269-23.744-85.289-42.74-162.059-56.987-101.316-18.21-176.113-50.651-224.39-97.355-48.276-46.703-72.421-108.826-72.421-186.397zM4548.34 16.028v984.227h-186.397V16.028h186.398zm1590.911 600.746c0 79.947-14.648 149.994-43.928 210.143-29.28 60.149-72.615 106.852-130.004 140.095-57.388 33.243-126.842 49.865-208.361 49.865-87.857 0-166.215-21.37-235.075-64.112-68.86-42.74-122.286-102.697-160.278-179.868-37.992-77.17-56.988-165.22-56.988-264.162 0-99.729 18.996-187.986 56.988-264.756 37.992-76.77 91.418-136.533 160.278-179.274 68.86-42.74 147.62-64.111 236.262-64.111 92.605 0 170.177 20.776 232.7 62.33 62.524 41.554 104.478 99.135 125.848 172.744L5963.54 308.09c-31.655-103.69-101.317-155.529-208.956-155.529-51.452 0-97.161 14.84-137.127 44.522-39.965 29.681-71.042 71.428-93.199 125.254-22.157 53.827-33.243 115.95-33.243 186.398 0 72.823 10.879 135.94 32.65 189.366 21.77 53.426 52.64 94.579 92.605 123.473s86.862 43.335 140.689 43.335c137.72 0 208.955-79.546 213.704-238.637h-187.585V469.556h356.174v147.218zM7698.106 16.028v984.227h-168.59L7066.49 311.652v688.603h-168.589V16.028h197.083l435.72 651.798V16.028h167.402z"/></svg>