<?xml version="1.0" standalone="no"?><!DOCTYPE svg PUBLIC "-//W3C//DTD SVG 1.1//EN" "http://www.w3.org/Graphics/SVG/1.1/DTD/svg11.dtd"><svg class="icon" width="200px" height="200.00px" viewBox="0 0 1024 1024" version="1.1" xmlns="http://www.w3.org/2000/svg"><path d="M342.7072 102.4a51.2 51.2 0 0 1 42.4448 22.5536L439.0144 204.8H921.6a51.2 51.2 0 0 1 51.2 51.2v640a51.2 51.2 0 0 1-51.2 51.2H102.4a51.2 51.2 0 0 1-51.2-51.2V153.6a51.2 51.2 0 0 1 51.2-51.2h240.3072zM550.4 384h-76.8v153.6h-153.6v76.8h153.6v153.6h76.8v-153.6h153.6v-76.8h-153.6v-153.6z" /></svg>