<?xml version="1.0" standalone="no"?><!DOCTYPE svg PUBLIC "-//W3C//DTD SVG 1.1//EN" "http://www.w3.org/Graphics/SVG/1.1/DTD/svg11.dtd"><svg class="icon" width="200px" height="200.00px" viewBox="0 0 1024 1024" version="1.1" xmlns="http://www.w3.org/2000/svg"><path d="M976.5888 409.088a25.6 25.6 0 0 1 25.088 30.7968l-97.1776 466.56A51.2 51.2 0 0 1 854.3744 947.2H76.8l103.5776-497.3824a51.2 51.2 0 0 1 50.1248-40.7552h746.0864zM317.1072 102.4a51.2 51.2 0 0 1 42.4448 22.5536L413.4144 204.8H844.8a51.2 51.2 0 0 1 51.2 51.2v76.8H169.6256a51.2 51.2 0 0 0-49.0752 36.6336l-1.024 4.1216L25.6 824.32V153.6a51.2 51.2 0 0 1 51.2-51.2h240.3072z" /></svg>