<?xml version="1.0" standalone="no"?><!DOCTYPE svg PUBLIC "-//W3C//DTD SVG 1.1//EN" "http://www.w3.org/Graphics/SVG/1.1/DTD/svg11.dtd"><svg class="icon" width="200px" height="200.00px" viewBox="0 0 1024 1024" version="1.1" xmlns="http://www.w3.org/2000/svg"><path d="M512 51.2c190.8736 0 345.6 154.7264 345.6 345.6 0 135.68-78.1824 253.1072-192 309.6576V832H358.4v-125.5168C244.608 649.9072 166.4 532.48 166.4 396.8 166.4 205.9264 321.1264 51.2 512 51.2z m152.6272 156.16l-41.7536 51.8656a176.6912 176.6912 0 0 1 17.408 259.072l48.3328 45.7728c79.1296-83.3792 90.1376-213.8624 20.1472-310.2208a243.5072 243.5072 0 0 0-44.1344-46.464zM384 896h256v51.2a25.6 25.6 0 0 1-25.6 25.6h-204.8a25.6 25.6 0 0 1-25.6-25.6v-51.2z" /></svg>