<?xml version="1.0" standalone="no"?><!DOCTYPE svg PUBLIC "-//W3C//DTD SVG 1.1//EN" "http://www.w3.org/Graphics/SVG/1.1/DTD/svg11.dtd"><svg class="icon" width="200px" height="200.00px" viewBox="0 0 1024 1024" version="1.1" xmlns="http://www.w3.org/2000/svg"><path d="M512 51.2c254.4896 0 460.8 206.3104 460.8 460.8s-206.3104 460.8-460.8 460.8S51.2 766.4896 51.2 512 257.5104 51.2 512 51.2z m25.6 665.6h-76.8v102.4h76.8v-102.4zM512 230.4a179.2 179.2 0 0 0-179.2 179.2h76.8a102.4 102.4 0 1 1 204.8 0c0 37.888-20.5824 70.9632-51.1744 88.9088a179.3536 179.3536 0 0 0-101.1712 140.7232l77.5424 1.0752a103.4752 103.4752 0 0 1 49.152-68.736A179.2 179.2 0 0 0 512 230.4z" /></svg>