<?xml version="1.0" standalone="no"?><!DOCTYPE svg PUBLIC "-//W3C//DTD SVG 1.1//EN" "http://www.w3.org/Graphics/SVG/1.1/DTD/svg11.dtd"><svg class="icon" width="200px" height="200.00px" viewBox="0 0 1024 1024" version="1.1" xmlns="http://www.w3.org/2000/svg"><path d="M344.6528 128c56.32 0 112.0768 17.0752 167.3472 51.2l9.7536-5.8368C573.824 143.104 626.3552 128 679.3472 128H972.8v742.4H676.7616c-58.0096 0-112.9216 17.0752-164.7616 51.2-51.84-34.1248-106.752-51.2-164.7616-51.2H51.2V128h293.4528zM819.2 537.6h-192v76.8H819.2v-76.8z m-422.4 0H204.8v76.8h192v-76.8zM819.2 358.4h-192v76.8H819.2v-76.8z m-422.4 0H204.8v76.8h192v-76.8z" /></svg>