<?xml version="1.0" standalone="no"?><!DOCTYPE svg PUBLIC "-//W3C//DTD SVG 1.1//EN" "http://www.w3.org/Graphics/SVG/1.1/DTD/svg11.dtd"><svg class="icon" width="200px" height="160.00px" viewBox="0 0 1280 1024" version="1.1" xmlns="http://www.w3.org/2000/svg"><path d="M1260.16608 105.6a20 20 0 0 1 17.248 30.08L868.39008 850.4a132.544 132.544 0 0 1-114.944 66.944h-265.184a20 20 0 0 1-17.248-30.112L880.07008 172.544A132.544 132.544 0 0 1 995.01408 105.6h265.152zM285.19008 105.6c47.392 0 91.2 25.504 114.912 66.88l6.144 10.688 6.144-10.688a132.544 132.544 0 0 1 114.912-66.88h264.576a20 20 0 0 1 17.248 30.08L400.07008 850.4a132.544 132.544 0 0 1-114.976 66.944H20.00608a20 20 0 0 1-17.248-30.112L217.99008 511.648 2.72608 135.712a20.192 20.192 0 0 1-2.592-8.544L0.07008 125.664C0.07008 114.592 8.99808 105.6 19.97408 105.6H285.19008z m833.28 502.24a20.032 20.032 0 0 1 7.232 7.456l151.744 271.552a20.672 20.672 0 0 1-7.232 27.744 19.232 19.232 0 0 1-9.856 2.72h-304a20 20 0 0 1-19.712-20.32 20.8 20.8 0 0 1 2.656-10.176l152.288-271.552a19.36 19.36 0 0 1 26.88-7.424z" /></svg>