<svg class="icon" viewBox="0 0 5607 1024" xmlns="http://www.w3.org/2000/svg" width="262.828" height="48"><path d="M395.85 513.755v287.89H258.047V514.634L11.41 74.021h155.356L330.02 404.919 493.275 74.02h149.212L395.849 513.755zM786.431 53.833c22.82 0 41.106 6.876 54.857 20.626 13.751 13.751 20.626 32.037 20.626 54.858 0 22.82-6.875 41.106-20.626 54.857-13.75 13.75-32.036 20.626-54.857 20.626-22.82 0-41.106-6.875-54.857-20.626-13.751-13.751-20.626-32.037-20.626-54.857 0-22.821 6.875-41.107 20.626-54.858 13.75-13.75 32.036-20.626 54.857-20.626zm63.195 208.018v539.795H722.36V261.85h127.268zm457.29 539.795l-195.73-265.948v265.948h-127.27V43.3h127.27V500.59l186.075-238.739h152.722l-207.14 256.293 225.572 283.502h-161.5zm712.704-235.228h-367.763c4.096 47.982 18.286 84.407 42.57 109.276s56.027 37.303 95.231 37.303c30.428 0 54.565-6.583 72.412-19.749 17.847-13.166 31.744-32.037 41.691-56.613l105.326 50.03c-35.694 84.846-108.251 127.269-217.673 127.269-54.418 0-101.815-11.85-142.19-35.548a237.275 237.275 0 0 1-93.038-99.62c-21.65-42.716-32.475-91.575-32.475-146.579s10.971-103.862 32.914-146.578c21.943-42.715 51.932-76.068 89.966-100.06s80.75-35.986 128.146-35.986c50.323 0 94.062 11.703 131.219 35.109 37.156 23.406 65.682 56.32 85.577 98.743 19.895 42.423 29.842 92.014 29.842 148.772 0 12.288-.585 23.699-1.755 34.231zm-365.13-91.282h236.983c-4.68-40.96-16.969-71.973-36.864-93.038-19.895-21.065-46.811-31.597-80.75-31.597-31.597 0-57.929 10.825-78.994 32.475-21.065 21.65-34.523 52.37-40.375 92.16zm1336.76-36.864c0 73.143-13.166 137.07-39.498 191.78-26.331 54.711-63.927 96.988-112.786 126.83-48.86 29.843-106.057 44.764-171.593 44.764h-278.236V74.02h278.236c65.536 0 122.733 15.067 171.593 45.202 48.86 30.135 86.455 72.704 112.786 127.707 26.332 55.004 39.497 118.784 39.497 191.342zm-136.924 0c0-76.069-18.725-136.485-56.174-181.248-37.449-44.763-89.527-67.145-156.233-67.145h-114.98v496.786h114.98c66.706 0 118.784-22.382 156.233-67.145 37.45-44.763 56.174-105.18 56.174-181.248zm724.114 128.146H3210.68c4.096 47.982 18.286 84.407 42.569 109.276s56.027 37.303 95.232 37.303c30.427 0 54.565-6.583 72.411-19.749 17.847-13.166 31.744-32.037 41.692-56.613l105.326 50.03c-35.694 84.846-108.252 127.269-217.674 127.269-54.418 0-101.814-11.85-142.19-35.548a237.275 237.275 0 0 1-93.037-99.62c-21.65-42.716-32.475-91.575-32.475-146.579s10.971-103.862 32.914-146.578c21.943-42.715 51.931-76.068 89.966-100.06s80.75-35.986 128.146-35.986c50.322 0 94.062 11.703 131.218 35.109 37.157 23.406 65.682 56.32 85.577 98.743 19.895 42.423 29.843 92.014 29.843 148.772 0 12.288-.586 23.699-1.756 34.231zm-365.129-91.282h236.983c-4.681-40.96-16.97-71.973-36.864-93.038-19.895-21.065-46.812-31.597-80.75-31.597-31.598 0-57.929 10.825-78.994 32.475-21.065 21.65-34.524 52.37-40.375 92.16zm459.045-64.95c0-31.013 8.63-58.808 25.892-83.384s41.399-43.593 72.412-57.051c31.012-13.458 66.12-20.188 105.325-20.188 55.004 0 100.645 10.387 136.924 31.16 36.279 20.772 60.27 49.883 71.972 87.332l-96.548 44.763c-14.629-44.47-50.323-66.706-107.081-66.706-25.747 0-46.08 5.12-61.002 15.36-14.92 10.24-22.381 25.015-22.381 44.325 0 18.724 8.045 33.06 24.137 43.008 16.091 9.947 44.617 17.846 85.577 23.698 64.366 8.777 111.909 26.916 142.629 54.418 30.72 27.502 46.08 65.536 46.08 114.103 0 34.523-9.07 64.805-27.21 90.843-18.139 26.04-43.446 46.227-75.922 60.563-32.475 14.336-69.486 21.504-111.03 21.504-60.27 0-110.008-11.41-149.212-34.231-39.205-22.82-65.536-55.296-78.994-97.426l96.548-44.764c8.777 25.161 23.552 44.764 44.325 58.807 20.772 14.043 47.543 21.065 80.31 21.065 30.428 0 54.126-5.705 71.095-17.115 16.97-11.41 25.454-28.233 25.454-50.469 0-23.406-8.484-40.814-25.454-52.224-16.969-11.41-48.274-20.041-93.915-25.892-60.27-8.192-105.326-26.04-135.168-53.541-29.842-27.502-44.763-63.488-44.763-107.959zm591.579-356.353c22.82 0 41.106 6.876 54.857 20.626 13.751 13.751 20.626 32.037 20.626 54.858 0 22.82-6.875 41.106-20.626 54.857-13.75 13.75-32.036 20.626-54.857 20.626-22.82 0-41.106-6.875-54.857-20.626-13.751-13.751-20.626-32.037-20.626-54.857 0-22.821 6.875-41.107 20.626-54.858 13.75-13.75 32.036-20.626 54.857-20.626zm63.195 208.018v539.795h-127.268V261.85h127.268zm626.688 0a2860.325 2860.325 0 0 0-3.51 123.758v386.194c0 74.899-22.528 133.56-67.584 175.982-45.056 42.423-109.13 63.634-192.22 63.634-137.508 0-220.014-43.008-247.515-129.024L4544.805 835c8.192 23.406 23.99 41.838 47.396 55.296 23.406 13.458 53.54 20.187 90.405 20.187 46.226 0 81.188-11.41 104.887-34.23 23.698-22.821 35.547-57.052 35.547-102.693v-49.152c-40.375 49.737-93.623 74.606-159.744 74.606-40.96 0-78.555-11.557-112.786-34.67-34.231-23.113-61.294-55.442-81.189-96.988-19.895-41.545-29.842-88.941-29.842-142.19 0-53.832 9.947-101.668 29.842-143.506 19.895-41.837 46.958-74.313 81.189-97.426a197.34 197.34 0 0 1 112.786-34.67c36.864 0 69.778 7.9 98.743 23.699a202.118 202.118 0 0 1 72.411 67.584c.585-19.895 1.756-37.157 3.511-51.785 1.756-14.629 2.633-23.699 2.633-27.21h113.225zM4823.04 525.166c0-52.663-11.85-94.94-35.547-126.83-23.699-31.89-54.565-47.835-92.6-47.835s-68.754 15.945-92.16 47.835c-23.405 31.89-35.108 74.167-35.108 126.83 0 51.492 11.703 93.184 35.109 125.074 23.405 31.89 54.125 47.835 92.16 47.835 25.16 0 47.396-7.168 66.706-21.504 19.31-14.336 34.377-34.67 45.202-61 10.825-26.332 16.238-56.467 16.238-90.405zm741.669-78.117v354.597H5437.44v-334.41c0-73.727-34.816-110.591-104.448-110.591-39.79 0-70.949 12.873-93.477 38.619-22.528 25.746-33.792 61.147-33.792 106.203v300.179h-127.268V385.609c0-50.322-1.463-91.575-4.389-123.758h113.225c3.511 22.236 5.56 49.152 6.144 80.75 39.79-62.025 102.108-93.038 186.954-93.038 57.344 0 102.4 17.262 135.168 51.786 32.768 34.523 49.152 83.09 49.152 145.7z"/></svg>