<svg xmlns="http://www.w3.org/2000/svg" xmlns:xlink="http://www.w3.org/1999/xlink" viewBox="0 0 1600 220" class="design-iconfont"><defs><linearGradient x1="5.263%" y1="7.156%" x2="70.643%" y2="99.124%" id="b"><stop stop-color="#6385ED" stop-opacity="0" offset="0%"/><stop stop-color="#3D68EB" stop-opacity=".301" offset="100%"/></linearGradient><linearGradient x1="27.776%" y1="-1.909%" x2="70.643%" y2="99.124%" id="d"><stop stop-color="#6385ED" stop-opacity="0" offset="0%"/><stop stop-color="#3D68EB" stop-opacity=".301" offset="100%"/></linearGradient><path id="a" d="M0 0h1600v220H0z"/></defs><g fill="none" fill-rule="evenodd"><mask id="c" fill="#fff"><use xlink:href="#a"/></mask><path fill="url(#b)" mask="url(#c)" d="M820.5 15a808.5 808.5 0 1 0 0 1617 808.5 808.5 0 1 0 0-1617z"/><path fill="url(#b)" opacity=".5" mask="url(#c)" d="M.5 39a556.5 556.5 0 1 0 0 1113A556.5 556.5 0 1 0 .5 39z"/><path fill="url(#b)" mask="url(#c)" d="M296 90.5a449 449 0 1 0 0 898 449 449 0 1 0 0-898zM1479 57a334 334 0 1 0 0 668 334 334 0 1 0 0-668z"/><path fill="url(#d)" mask="url(#c)" d="M1072 137a300 300 0 1 0 0 600 300 300 0 1 0 0-600z"/></g></svg>