<?xml version="1.0" encoding="UTF-8"?>
<svg width="205px" height="122px" viewBox="0 0 205 122" version="1.1" xmlns="http://www.w3.org/2000/svg" xmlns:xlink="http://www.w3.org/1999/xlink">
    <title>logo备份 5</title>
    <g id="logo1" stroke="none" stroke-width="1" fill="none" fill-rule="evenodd">
        <g id="logo备份-5" transform="translate(0.000000, -0.000964)" fill-rule="nonzero">
            <polygon id="路径" fill="#1174F9" points="70.4 0.000963715921 127 0.000963715921 57 121.300964 0.3 121.300964"></polygon>
            <path d="M143.8,0.000963715921 C177.213227,0.000963715921 204.3,27.0877364 204.3,60.5009637 C204.3,93.9141911 177.213227,121.000964 143.8,121.000964 L74.8,121.000964 C73.2826384,121.000964 71.7783235,120.945104 70.2889996,120.835329 L99.2039996,71 L143.8,71.0009637 C149.59899,71.0009637 154.3,66.2999536 154.3,60.5009637 C154.3,54.7019738 149.59899,50.0009637 143.8,50.0009637 L111.388,50 L140.4,0 L143.8,0.000963715921 Z" id="形状结合" fill="#06BF6F"></path>
            <polygon id="路径" fill="#1174F9" transform="translate(28.350000, 24.750964) scale(1, -1) translate(-28.350000, -24.750964) " points="28.4 0.200963716 56.7 49.3009637 0 49.3009637"></polygon>
        </g>
    </g>
</svg>