<?xml version="1.0" encoding="UTF-8"?>
<svg width="273px" height="163px" viewBox="0 0 273 163" version="1.1" xmlns="http://www.w3.org/2000/svg" xmlns:xlink="http://www.w3.org/1999/xlink">
    <title>logo备份 5</title>
    <g id="logo1" stroke="none" stroke-width="1" fill="none" fill-rule="evenodd">
        <g id="编组-6备份-2" transform="translate(-64.000000, -118.000000)" fill-rule="nonzero">
            <g id="logo备份-5" transform="translate(64.000000, 118.665382)">
                <polygon id="路径" fill="#1174F9" points="93.8666667 0.00128495456 169.333333 0.00128495456 76 161.734618 0.4 161.734618"></polygon>
                <path d="M191.733333,0.00128495456 C236.284303,0.00128495456 272.4,36.1169818 272.4,80.6679516 C272.4,125.218921 236.284303,161.334618 191.733333,161.334618 L99.7333333,161.334618 C97.7100193,161.334618 95.7041037,161.260127 93.7181795,161.113736 L132.271666,94.667 L191.733333,94.6679516 C199.46532,94.6679516 205.733333,88.3999381 205.733333,80.6679516 C205.733333,72.9359651 199.46532,66.6679516 191.733333,66.6679516 L148.517666,66.667 L187.198666,0.001 L191.733333,0.00128495456 Z" id="形状结合" fill="#FFB819"></path>
                <polygon id="路径" fill="#1174F9" transform="translate(37.800000, 33.001285) scale(1, -1) translate(-37.800000, -33.001285) " points="37.8666667 0.267951621 75.6 65.7346183 0 65.7346183"></polygon>
            </g>
        </g>
    </g>
</svg>