<?xml version="1.0" encoding="UTF-8"?>
<svg width="120px" height="120px" viewBox="0 0 120 120" version="1.1" xmlns="http://www.w3.org/2000/svg" xmlns:xlink="http://www.w3.org/1999/xlink">
    <title>编组 5</title>
    <g id="组件" stroke="none" stroke-width="1" fill="none" fill-rule="evenodd">
        <g id="反馈备份-2" transform="translate(-320.000000, -1003.000000)">
            <g id="编组-5" transform="translate(320.000000, 1003.000000)">
                <rect id="矩形" fill="#D8D8D8" opacity="0" x="0" y="0" width="120" height="120"></rect>
                <g id="编组-4" transform="translate(16.000000, 3.000000)" fill="#A5AAB8">
                    <path d="M83.5862069,57 L83.5862069,85.7586207 C83.5862069,87.9677597 81.7953459,89.7586207 79.5862069,89.7586207 L10,89.7586207 C7.790861,89.7586207 6,87.9677597 6,85.7586207 L6,57 L28.275,57 C29.3794193,57.0003847 30.2747876,57.8955808 30.2753846,59 L30.2758621,61.4827586 L30.2758621,61.4827586 C30.2758621,63.624954 31.9598305,65.3738375 34.0762217,65.4778633 L34.2758621,65.4827586 L55.3103451,65.4827586 C57.5194841,65.4827586 59.3103451,63.6918976 59.3103451,61.4827586 L59.310154,59 C59.309915,57.8954305 60.2052765,56.9999311 61.309846,56.9998461 C61.3098974,56.9998461 61.3099487,56.9998461 61.31,57 L83.5862069,57 L83.5862069,57 Z" id="路径" fill-opacity="0.257918"></path>
                    <polygon id="路径-2" fill-opacity="0.339318" points="5.93103448 57.0689655 23.0344828 34.9310345 23.0510634 49.5441159 20.108076 57.0689655"></polygon>
                    <polygon id="路径-2备份" fill-opacity="0.339318" transform="translate(74.784152, 46.021045) scale(-1, 1) translate(-74.784152, -46.021045) " points="66.0344828 57.0689655 83.533822 34.9731255 83.533822 49.5862069 80.2115243 57.0689655"></polygon>
                    <rect id="矩形" fill-opacity="0.219901" x="23.0344828" y="34.9310345" width="43" height="14.6551724"></rect>
                    <path d="M66.0344828,49.5862069 L69.3567805,57.0689655 L61.241076,57.0683569 C60.1365065,57.0679887 59.2410089,57.963352 59.240926,59.0679215 C59.240926,59.0680166 59.240926,59.0681118 59.2412114,59.0682069 L59.2413796,61.5517241 L59.2413796,61.5517241 C59.2413796,63.7608631 57.4505186,65.5517241 55.2413796,65.5517241 L34.2068966,65.5517241 C31.9977576,65.5517241 30.2068966,63.7608631 30.2068966,61.5517241 L30.206442,59.0682069 C30.2060241,57.9637217 29.3105613,57.06849 28.206076,57.0683571 L20.108076,57.0689655 L20.108076,57.0689655 L23.0344828,49.5862069 L66.0344828,49.5862069 Z" id="路径" fill-opacity="0.120108"></path>
                    <ellipse id="椭圆形" fill-opacity="0.160003" cx="44.586207" cy="102.172414" rx="26.586207" ry="5.17241379"></ellipse>
                    <path d="M60.69279,21.7241379 C56.3299136,21.7241379 52.7931034,18.1873278 52.7931034,13.8244514 C52.7931034,9.46157502 56.3299136,5.92476489 60.69279,5.92476489 C61.0808625,5.92476489 61.4623994,5.95274773 61.8354927,6.00680572 C63.6178313,2.44557439 67.3007479,0 71.5548589,0 C76.7648148,0 81.1180594,3.6680168 82.1730379,8.56249552 L82.1858167,8.5619747 L82.4169279,8.55799373 C86.0526582,8.55799373 89,11.5053355 89,15.1410658 C89,18.7767962 86.0526582,21.7241379 82.4169279,21.7241379 L60.69279,21.7241379 Z" id="形状结合" fill-opacity="0.179386"></path>
                    <path d="M5.17241379,31.4827586 L5.172,31.4805862 L5.04937468,31.4783135 C2.24145342,31.3631132 0,29.023235 0,26.153605 C0,23.2103948 2.35787342,20.8244514 5.26645768,20.8244514 C5.52546018,20.8244514 5.78009584,20.8433707 6.0290886,20.879918 C7.21634296,18.4774741 9.67168077,16.8275862 12.507837,16.8275862 C15.9814677,16.8275862 18.8838502,19.3025077 19.5868215,22.604805 L19.7492163,22.6008359 C22.1730365,22.6008359 24.137931,24.5891221 24.137931,27.0417973 C24.137931,29.4679313 22.2153319,31.4396725 19.8277399,31.4820621 L5.17241379,31.4827586 Z" id="形状结合备份" fill-opacity="0.137043"></path>
                </g>
            </g>
        </g>
    </g>
</svg>