<?xml version="1.0" encoding="UTF-8"?>
<svg xmlns="http://www.w3.org/2000/svg" xmlns:xlink="http://www.w3.org/1999/xlink" width="72px" height="72px" viewBox="0 0 72 72" version="1.1">
  <title>编组 2备份 5</title>
  <g id="组件" stroke="none" stroke-width="1" fill="none" fill-rule="evenodd">
    <g id="反馈备份-2" transform="translate(-1024.000000, -488.000000)">
      <g id="编组-2备份-5" transform="translate(1024.000000, 488.000000)">
        <rect id="矩形" fill="#D8D8D8" opacity="0" x="0" y="0" width="72" height="72"></rect>
        <path d="M67.463415,53.8804878 C67.463415,58.2448843 53.2566456,61.7829268 35.7317075,61.7829268 C18.2067694,61.7829268 4,58.2448843 4,53.8804878 C4,51.8639858 7.03280321,50.0238905 12.0244315,48.6276646 L12.0243902,50.7890694 C12.0243902,53.4504394 13.027842,55.1531164 15.3884372,55.1531164 L56.0749773,55.1531164 C58.4355725,55.1531164 59.4390242,53.4504394 59.4390242,50.7890694 L59.4399769,48.6279425 C64.4310142,50.0241347 67.463415,51.8641196 67.463415,53.8804878 Z" id="形状结合" fill="#A4A6AA" opacity="0.144239591"></path>
        <path d="M20.0090706,24.0432362 C20.6391128,23.147913 21.6654236,22.6151761 22.7602098,22.6151761 L48.7032047,22.6151761 C49.7979909,22.6151761 50.8243016,23.147913 51.4543439,24.0432362 L58.4390242,33.9688346 L58.4390242,50.7890694 C58.4390242,52.6469813 57.9328891,54.1531164 56.0749773,54.1531164 C30.1892251,54.1531164 16.6270451,54.1531164 15.3884372,54.1531164 C13.5305254,54.1531164 13.0243902,52.6469813 13.0243902,50.7890694 L13.0243902,33.9688346 L20.0090706,24.0432362 Z" id="路径" fill="#000000" opacity="0"></path>
        <path d="M48.7032047,21.6151761 C50.1234282,21.6151761 51.4548211,22.3062749 52.2721503,23.4677428 L59.2568307,33.3933412 C59.2613908,33.3998213 59.2658696,33.4063496 59.2702667,33.4129243 C59.282925,33.4316364 59.2947605,33.4506527 59.3059618,33.4700809 C59.3135299,33.4835734 59.3208843,33.4970715 59.3279176,33.5107184 C59.3712392,33.594126 59.4029851,33.6846221 59.4212053,33.7799199 C59.4329749,33.8422676 59.4390242,33.9053121 59.4390242,33.9688346 L59.4390242,50.7890694 C59.4390242,53.4504394 58.4355725,55.1531164 56.0749773,55.1531164 L15.3884372,55.1531164 C13.027842,55.1531164 12.0243902,53.4504394 12.0243902,50.7890694 L12.0243902,33.9688346 C12.0243902,33.9457203 12.0251912,33.9226693 12.0267809,33.8997203 C12.0306439,33.8431169 12.0390958,33.7884669 12.051769,33.7354565 C12.0574113,33.7129041 12.0636683,33.6903366 12.0707087,33.6680164 C12.0753862,33.6522788 12.0807132,33.6367363 12.0864068,33.6213718 C12.0921472,33.6066698 12.0978705,33.5922682 12.1039288,33.5779998 C12.1133735,33.5551132 12.1239743,33.5325703 12.1353724,33.5105061 C12.1563911,33.4701768 12.180119,33.4309491 12.2065838,33.3933412 L12.1551637,33.4740723 C12.1688827,33.4500219 12.183571,33.426596 12.1991756,33.4038479 L12.2065838,33.3933412 L19.1912642,23.4677428 C20.0085934,22.3062749 21.3399863,21.6151761 22.7602098,21.6151761 Z M25.0387359,33.9688346 L13.0243902,33.9688346 L13.0262304,50.979965 C13.0609035,52.7490618 13.5945913,54.1531164 15.3884372,54.1531164 L56.0749773,54.1531164 C57.9328891,54.1531164 58.4390242,52.6469813 58.4390242,50.7890694 L58.4390242,33.9688346 L46.4244189,33.9688346 C45.6537917,33.9688346 45.0085434,34.5527763 44.9318631,35.319579 L44.7137961,37.5002492 C44.6278108,38.3601026 43.9042622,39.0149051 43.0401202,39.0149051 L28.4232943,39.0149051 L28.3373671,39.012739 C27.5116241,38.9710237 26.8327375,38.3314408 26.7496184,37.5002492 L26.5312741,35.3194031 C26.4545102,34.5526768 25.8092954,33.9688346 25.0387359,33.9688346 Z M48.7032047,22.6151761 L22.7602098,22.6151761 C21.6654236,22.6151761 20.6391128,23.147913 20.0090706,24.0432362 L13.7283902,32.9681761 L25.0387359,32.9688346 C26.267164,32.9688346 27.3044554,33.8591295 27.5042995,35.0548859 L27.5262995,35.219782 L27.7446556,37.4007454 C27.7782363,37.7365524 28.0526321,37.9970794 28.3625667,38.0130566 L28.4232943,38.0149051 L43.0401202,38.0149051 C43.3905107,38.0149051 43.6838938,37.7493971 43.7187589,37.4007454 L43.9368259,35.2200753 C44.0646264,33.9420708 45.1400403,32.9688346 46.4244189,32.9688346 L57.7343902,32.9681761 L51.4543439,24.0432362 C50.8636793,23.2038707 49.9247318,22.6831846 48.9075946,22.6213776 L48.7032047,22.6151761 Z" id="形状结合" fill="#8D9196" fill-rule="nonzero" opacity="0.28289141"></path>
        <rect id="矩形" fill="#8D9196" opacity="0.27999224" x="34.8906955" y="9" width="1.68202348" height="8.83062328" rx="0.841011741"></rect>
        <path d="M26.4805781,10.6820235 C26.9450561,10.6820235 27.3215898,11.0585573 27.3215898,11.5230352 L27.3215898,18.671635 C27.3215898,19.136113 26.9450561,19.5126468 26.4805781,19.5126468 C26.0161001,19.5126468 25.6395664,19.136113 25.6395664,18.671635 L25.6395664,11.5230352 C25.6395664,11.0585573 26.0161001,10.6820235 26.4805781,10.6820235 Z" id="矩形备份-2" fill="#8D9196" opacity="0.27999224" transform="translate(26.480578, 15.097335) rotate(-25.000000) translate(-26.480578, -15.097335) "></path>
        <path d="M44.9828364,10.6820235 C45.4473144,10.6820235 45.8238481,11.0585573 45.8238481,11.5230352 L45.8238481,18.671635 C45.8238481,19.136113 45.4473144,19.5126468 44.9828364,19.5126468 C44.5183584,19.5126468 44.1418247,19.136113 44.1418247,18.671635 L44.1418247,11.5230352 C44.1418247,11.0585573 44.5183584,10.6820235 44.9828364,10.6820235 Z" id="矩形备份" fill="#8D9196" opacity="0.27999224" transform="translate(44.982836, 15.097335) rotate(25.000000) translate(-44.982836, -15.097335) "></path>
        <path d="M58.4390242,33.9688346 L58.4390242,50.7890694 C58.4390242,52.6469813 57.9328891,54.1531164 56.0749773,54.1531164 C30.1892251,54.1531164 16.6270451,54.1531164 15.3884372,54.1531164 C13.5305254,54.1531164 13.0243902,52.6469813 13.0243902,50.7890694 L13.0243902,33.9688346 L25.0387359,33.9688346 C25.8092954,33.9688346 26.4545102,34.5526768 26.5312741,35.3194031 L26.7496184,37.5002492 L26.7496184,37.5002492 C26.8327375,38.3314408 27.5116241,38.9710237 28.3373671,39.012739 L28.4232943,39.0149051 L43.0401202,39.0149051 C43.9042622,39.0149051 44.6278108,38.3601026 44.7137961,37.5002492 L44.9318631,35.319579 C45.0085434,34.5527763 45.6537917,33.9688346 46.4244189,33.9688346 L58.4390242,33.9688346 L58.4390242,33.9688346 Z" id="路径" fill="#888B8E" opacity="0.0807560512"></path>
      </g>
    </g>
  </g>
</svg>
