<?xml version="1.0" standalone="no"?><!DOCTYPE svg PUBLIC "-//W3C//DTD SVG 1.1//EN" "http://www.w3.org/Graphics/SVG/1.1/DTD/svg11.dtd"><svg class="icon" width="200px" height="200.00px" viewBox="0 0 1024 1024" version="1.1" xmlns="http://www.w3.org/2000/svg"><path d="M563.2 51.2v358.4h358.4v512a51.2 51.2 0 0 1-51.2 51.2H153.6a51.2 51.2 0 0 1-51.2-51.2V102.4a51.2 51.2 0 0 1 51.2-51.2h409.6z m25.6 411.008h-66.56v162.944a115.2 115.2 0 1 0 65.6896 118.656H588.8l-0.0256-13.1328L588.8 729.6v-1.0752l-0.0256-172.2112 61.568 61.568 47.0784-47.0784L588.8 462.208h-0.0256zM473.6 680.96c26.88 0 48.64 21.76 48.64 48.64l-0.0256-0.64v1.28a48.64 48.64 0 0 1-44.8 47.872l-3.8144 0.128a48.64 48.64 0 0 1 0-97.28zM640.1536 51.2L920.832 332.8H640V51.2z" /></svg>