<?xml version="1.0" standalone="no"?><!DOCTYPE svg PUBLIC "-//W3C//DTD SVG 1.1//EN" "http://www.w3.org/Graphics/SVG/1.1/DTD/svg11.dtd"><svg class="icon" width="200px" height="200.00px" viewBox="0 0 1024 1024" version="1.1" xmlns="http://www.w3.org/2000/svg"><path d="M530.0992 59.4432L649.8304 179.2 819.2 179.2a25.6 25.6 0 0 1 25.6 25.6v169.3184l119.7568 119.7824a25.6 25.6 0 0 1 0 36.1984l-119.7824 119.7312L844.8 819.2a25.6 25.6 0 0 1-25.6 25.6h-169.3696l-119.7312 119.7568a25.6 25.6 0 0 1-36.1984 0l-119.7824-119.7824L204.8 844.8a25.6 25.6 0 0 1-25.6-25.6v-169.3696l-119.7568-119.7312a25.6 25.6 0 0 1 0-36.1984L179.2 374.1184 179.2 204.8a25.6 25.6 0 0 1 25.6-25.6h169.3184l119.7824-119.7568a25.6 25.6 0 0 1 36.1984 0z m-144.9984 312.6784h-87.296l214.1952 358.4 213.888-358.3488h-86.9888l-126.8224 212.2752-126.976-212.3264z" /></svg>