<?xml version="1.0" standalone="no"?><!DOCTYPE svg PUBLIC "-//W3C//DTD SVG 1.1//EN" "http://www.w3.org/Graphics/SVG/1.1/DTD/svg11.dtd"><svg class="icon" width="200px" height="200.00px" viewBox="0 0 1024 1024" version="1.1" xmlns="http://www.w3.org/2000/svg"><path d="M512 51.2c190.874 0 345.6 154.726 345.6 345.6 0 135.68-78.182 253.107-192 309.658V832H358.4V706.483c-113.792-56.576-192-174.003-192-309.683 0-190.874 154.726-345.6 345.6-345.6z m152.627 156.16l-41.753 51.866a176.691 176.691 0 0 1 17.408 259.072l48.332 45.772c79.13-83.379 90.138-213.862 20.148-310.22a243.507 243.507 0 0 0-44.135-46.464zM384 896h256v51.2a25.6 25.6 0 0 1-25.6 25.6H409.6a25.6 25.6 0 0 1-25.6-25.6V896z" /></svg>