<?xml version="1.0" standalone="no"?><!DOCTYPE svg PUBLIC "-//W3C//DTD SVG 1.1//EN" "http://www.w3.org/Graphics/SVG/1.1/DTD/svg11.dtd"><svg class="icon" width="200px" height="200.00px" viewBox="0 0 1024 1024" version="1.1" xmlns="http://www.w3.org/2000/svg"><path d="M694.4512 102.4a25.6 25.6 0 0 1 25.344 22.144L734.2592 230.4H947.2a25.6 25.6 0 0 1 25.6 25.6v588.8a25.6 25.6 0 0 1-25.6 25.6H76.8a25.6 25.6 0 0 1-25.6-25.6V256a25.6 25.6 0 0 1 25.6-25.6h264.1408l14.4384-105.856a25.6 25.6 0 0 1 25.344-22.144h313.728zM512 345.6a192 192 0 1 0 0 384 192 192 0 0 0 0-384z m0 76.8a115.2 115.2 0 1 1 0 230.4 115.2 115.2 0 0 1 0-230.4zM128 115.2h153.6v76.8H128z" /></svg>