<svg xmlns="http://www.w3.org/2000/svg" width="200" height="200" class="icon" viewBox="0 0 1024 1024"><path d="M959.474 766.293c0 62.08-202.041 112.399-451.286 112.399-249.244 0-451.3-50.319-451.3-112.399 0-28.672 43.137-54.84 114.12-74.695v30.734c0 37.846 14.28 62.066 47.844 62.066h578.66c33.564 0 47.843-24.22 47.843-62.066l.014-30.734c70.983 19.854 114.105 46.023 114.105 74.695zm-266.81-458.88a62.097 62.097 0 0 1 50.774 26.354l99.328 141.156a14.222 14.222 0 0 1 2.589 8.192v239.217c0 37.846-14.265 62.066-47.844 62.066h-578.66c-33.564 0-47.843-24.22-47.843-62.066V483.13a14.222 14.222 0 0 1 2.603-8.192l-.74 1.152a14.222 14.222 0 0 1 .626-.996l.114-.142 99.328-141.17a62.066 62.066 0 0 1 50.773-26.353zM356.125 483.13H185.23l.029 241.934c.497 25.173 8.092 45.127 33.593 45.127h578.66c26.424 0 33.62-21.418 33.62-47.843V483.129h-170.88a21.333 21.333 0 0 0-21.22 19.2l-3.1 31.019a23.922 23.922 0 0 1-23.808 21.546H404.238l-1.223-.028a23.922 23.922 0 0 1-22.57-21.533l-3.115-31.004a21.333 21.333 0 0 0-21.22-19.214zm336.555-161.48H323.698a47.844 47.844 0 0 0-39.111 20.31l-89.344 126.933h160.853a35.556 35.556 0 0 1 35.072 29.682l.313 2.347 3.115 31.004a9.628 9.628 0 0 0 8.789 8.719l.853.028h207.886c4.978 0 9.16-3.783 9.657-8.732l3.1-31.005a35.556 35.556 0 0 1 35.371-32.028h160.854L731.79 341.959a47.844 47.844 0 0 0-36.21-20.224l-2.915-.085zM508.188 128q11.961 0 11.961 11.96v101.676q0 11.96-11.96 11.96-11.961 0-11.961-11.96V139.96q0-11.961 11.96-11.961ZM350.08 157.81a11.96 11.96 0 0 1 15.886 5.774l42.966 92.16a11.96 11.96 0 1 1-21.675 10.098l-42.965-92.146a11.96 11.96 0 0 1 5.788-15.886zm316.217 0a11.96 11.96 0 0 1 5.788 15.886l-42.98 92.16a11.96 11.96 0 1 1-21.674-10.126l42.965-92.146a11.96 11.96 0 0 1 15.9-5.774zm164.835 325.305v239.217c0 26.425-7.196 47.844-33.62 47.844h-578.66c-26.411 0-33.622-21.419-33.622-47.844V483.13h170.894a21.333 21.333 0 0 1 21.22 19.2l3.115 31.019c1.18 11.818 10.837 20.92 22.57 21.518l1.223.028h207.872c12.288 0 22.585-9.315 23.808-21.546l3.1-31.005a21.333 21.333 0 0 1 21.22-19.214h170.895z"/></svg>