<?xml version="1.0" standalone="no"?><!DOCTYPE svg PUBLIC "-//W3C//DTD SVG 1.1//EN" "http://www.w3.org/Graphics/SVG/1.1/DTD/svg11.dtd"><svg class="icon" width="200px" height="200.00px" viewBox="0 0 1024 1024" version="1.1" xmlns="http://www.w3.org/2000/svg"><path d="M959.473778 766.293333c0 62.08-202.040889 112.398222-451.285334 112.398223C258.944 878.691556 56.888889 828.373333 56.888889 766.293333c0-28.672 43.136-54.840889 114.119111-74.695111v30.734222c0 37.845333 14.279111 62.065778 47.843556 62.065778h578.659555c33.564444 0 47.843556-24.220444 47.843556-62.065778l0.014222-30.734222c70.983111 19.854222 114.104889 46.023111 114.104889 74.695111zM692.664889 307.413333c20.195556 0 39.139556 9.827556 50.773333 26.353778l99.328 141.155556a14.222222 14.222222 0 0 1 2.588445 8.192v239.217777c0 37.845333-14.264889 62.065778-47.843556 62.065778H218.851556c-33.564444 0-47.843556-24.220444-47.843556-62.065778V483.128889a14.222222 14.222222 0 0 1 2.602667-8.192l-0.739556 1.152a14.222222 14.222222 0 0 1 0.625778-0.995556l0.113778-0.142222 99.328-141.169778a62.065778 62.065778 0 0 1 50.773333-26.353777zM356.124444 483.128889H185.230222l0.028445 241.934222c0.497778 25.173333 8.092444 45.127111 33.592889 45.127111h578.659555c26.424889 0 33.621333-21.418667 33.621333-47.843555V483.128889H660.252444a21.333333 21.333333 0 0 0-21.219555 19.2l-3.100445 31.018667a23.921778 23.921778 0 0 1-23.808 21.546666H404.238222l-1.223111-0.028444A23.921778 23.921778 0 0 1 380.444444 533.333333l-3.114666-31.004444a21.333333 21.333333 0 0 0-21.219556-19.214222z m336.554667-161.479111H323.697778a47.843556 47.843556 0 0 0-39.111111 20.309333l-89.344 126.933333h160.853333a35.555556 35.555556 0 0 1 35.072 29.681778l0.312889 2.346667 3.114667 31.004444a9.628444 9.628444 0 0 0 8.789333 8.718223l0.853333 0.028444H612.124444c4.977778 0 9.159111-3.783111 9.656889-8.732444l3.100445-31.004445a35.555556 35.555556 0 0 1 35.370666-32.028444h160.853334l-89.315556-126.947556a47.843556 47.843556 0 0 0-36.209778-20.224l-2.915555-0.085333zM496.227556 128m11.960888 0l0 0q11.960889 0 11.960889 11.960889l0 101.674667q0 11.960889-11.960889 11.960888l0 0q-11.960889 0-11.960888-11.960888l0-101.674667q0-11.960889 11.960888-11.960889ZM350.08 157.809778a11.960889 11.960889 0 0 1 15.886222 5.774222l42.965334 92.16a11.960889 11.960889 0 1 1-21.674667 10.097778l-42.965333-92.145778a11.960889 11.960889 0 0 1 5.788444-15.886222zM666.296889 157.809778a11.960889 11.960889 0 0 1 5.788444 15.886222l-42.979555 92.16a11.960889 11.960889 0 1 1-21.674667-10.126222l42.965333-92.145778a11.960889 11.960889 0 0 1 15.900445-5.774222zM831.132444 483.114667v239.217777c0 26.424889-7.196444 47.843556-33.621333 47.843556H218.851556c-26.410667 0-33.621333-21.418667-33.621334-47.843556V483.128889H356.124444a21.333333 21.333333 0 0 1 21.219556 19.2l3.114667 31.018667c1.180444 11.818667 10.837333 20.920889 22.570666 21.518222l1.223111 0.028444H612.124444c12.288 0 22.584889-9.315556 23.808-21.546666l3.100445-31.004445a21.333333 21.333333 0 0 1 21.219555-19.214222H831.146667z" /></svg>