<?xml version="1.0" standalone="no"?><!DOCTYPE svg PUBLIC "-//W3C//DTD SVG 1.1//EN" "http://www.w3.org/Graphics/SVG/1.1/DTD/svg11.dtd"><svg class="icon" width="200px" height="200.00px" viewBox="0 0 1024 1024" version="1.1" xmlns="http://www.w3.org/2000/svg"><path d="M849.800533 512v245.410133a34.133333 34.133333 0 0 1-34.133333 34.133334H221.866667a34.133333 34.133333 0 0 1-34.133334-34.133334V512h190.08c9.4208 0 17.066667 7.645867 17.066667 17.066667v21.188266a34.133333 34.133333 0 0 0 32.4352 34.090667l1.706667 0.042667H608.512a34.133333 34.133333 0 0 0 34.133333-34.133334V529.066667a17.066667 17.066667 0 0 1 17.066667-17.066667h190.088533zM187.144533 512.5888l145.9456-188.910933 0.145067 124.6976-25.1136 64.213333zM849.3568 512.5888l-149.333333-188.552533v124.6976l28.356266 63.854933zM333.090133 323.677867h366.933334v125.056h-366.933334zM700.023467 448.733867l28.356266 63.854933H659.114667a17.066667 17.066667 0 0 0-17.066667 17.066667v21.188266a34.133333 34.133333 0 0 1-34.133333 34.133334H428.433067a34.133333 34.133333 0 0 1-34.133334-34.133334v-21.1968a17.066667 17.066667 0 0 0-17.066666-17.066666l-69.111467 0.008533 24.968533-63.854933h366.933334zM290.133333 897.467733a226.8672 44.1344 0 1 0 453.7344 0 226.8672 44.1344 0 1 0-453.7344 0ZM654.446933 210.978133a67.413333 67.413333 0 1 1 9.745067-134.1184A92.689067 92.689067 0 0 1 747.136 25.6c44.458667 0 81.604267 31.300267 90.606933 73.0624h0.110934l1.962666-0.034133a56.174933 56.174933 0 0 1 0 112.349866H654.455467zM180.667733 294.254933v-0.017066l-1.0496-0.0256C155.656533 293.230933 136.533333 273.262933 136.533333 248.7808c0-25.122133 20.1216-45.482667 44.936534-45.482667 2.218667 0 4.386133 0.170667 6.510933 0.477867 10.129067-20.5056 31.086933-34.577067 55.287467-34.577067 29.636267 0 54.408533 21.12 60.407466 49.297067l1.3824-0.034133c20.6848 0 37.4528 16.964267 37.4528 37.888 0 20.7104-16.4096 37.538133-36.778666 37.896533H180.667733z" /></svg>