<?xml version="1.0" standalone="no"?><!DOCTYPE svg PUBLIC "-//W3C//DTD SVG 1.1//EN" "http://www.w3.org/Graphics/SVG/1.1/DTD/svg11.dtd"><svg class="icon" width="200px" height="200.00px" viewBox="0 0 1024 1024" version="1.1" xmlns="http://www.w3.org/2000/svg"><path d="M563.2 51.2v358.4h358.4v512a51.2 51.2 0 0 1-51.2 51.2H153.6a51.2 51.2 0 0 1-51.2-51.2V102.4a51.2 51.2 0 0 1 51.2-51.2h409.6zM428.8 519.194h-90.01l111.002 166.502L332.8 850.688h86.989l66.022-104.986c1.997-2.995 5.99-10.496 11.981-22.502 1.024 1.997 2.509 4.506 4.506 7.5 3.993 6.99 7.014 12.007 9.01 15.002l65.998 104.986h93.004L548.787 685.696l109.517-166.502h-88.5l-54.015 98.995c-5.99 12.032-11.008 21.504-14.976 28.518a133.427 133.427 0 0 1-7.501-13.517l-9.011-13.49L428.8 519.193zM640.154 51.2l280.678 281.6H640V51.2z" /></svg>