<?xml version="1.0" standalone="no"?><!DOCTYPE svg PUBLIC "-//W3C//DTD SVG 1.1//EN" "http://www.w3.org/Graphics/SVG/1.1/DTD/svg11.dtd"><svg class="icon" width="200px" height="200.00px" viewBox="0 0 1024 1024" version="1.1" xmlns="http://www.w3.org/2000/svg"><path d="M563.2 51.2v358.4h358.4v512a51.2 51.2 0 0 1-51.2 51.2H153.6a51.2 51.2 0 0 1-51.2-51.2V102.4a51.2 51.2 0 0 1 51.2-51.2h409.6z m-134.4 467.9936h-90.0096l111.0016 166.5024L332.8 850.688h86.9888l66.0224-104.9856c1.9968-2.9952 5.9904-10.496 11.9808-22.5024 1.024 1.9968 2.5088 4.5056 4.5056 7.5008 3.9936 6.9888 7.0144 12.0064 9.0112 15.0016l65.9968 104.9856h93.0048l-121.5232-164.992 109.5168-166.5024h-88.4992l-54.016 98.9952c-5.9904 12.032-11.008 21.504-14.976 28.5184a133.4272 133.4272 0 0 1-7.5008-13.5168l-9.0112-13.4912-55.5008-100.5056zM640.1536 51.2L920.832 332.8H640V51.2z" /></svg>