<?xml version="1.0" standalone="no"?><!DOCTYPE svg PUBLIC "-//W3C//DTD SVG 1.1//EN" "http://www.w3.org/Graphics/SVG/1.1/DTD/svg11.dtd"><svg class="icon" width="200px" height="200.00px" viewBox="0 0 1024 1024" version="1.1" xmlns="http://www.w3.org/2000/svg"><path d="M419.1488 512a92.8512 92.8512 0 1 0 185.7024 0 92.8512 92.8512 0 0 0-185.7024 0zM512 257.2288C231.04 257.2288 62.0032 512 62.0032 512S231.04 766.7712 512 766.7712C792.1664 766.7712 961.9968 512 961.9968 512S792.1664 257.2288 512 257.2288z m0 433.3312c-98.4064 0-178.56-80.128-178.56-178.56 0-98.4064 80.128-178.56 178.56-178.56 98.4064 0 178.56 80.128 178.56 178.56 0 98.4064-80.128 178.56-178.56 178.56z" /></svg>