<?xml version="1.0" standalone="no"?><!DOCTYPE svg PUBLIC "-//W3C//DTD SVG 1.1//EN" "http://www.w3.org/Graphics/SVG/1.1/DTD/svg11.dtd"><svg class="icon" width="200px" height="120.05px" viewBox="0 0 1706 1024" version="1.1" xmlns="http://www.w3.org/2000/svg"><path d="M1244.672 128c42.666667-0.085333 77.226667 34.432 77.354667 77.056v223.573333a2.816 2.816 0 0 1 0 0.853334v3.456c0 7.210667-0.170667 14.336-0.512 21.461333 10.922667 161.237333 145.578667 287.402667 308.906666 287.317333l0.554667 0.085334c41.173333 1.92 73.6 35.84 73.685333 77.056 0 41.130667-32.426667 75.093333-73.685333 77.056-3.242667 0-6.485333-0.256-9.685333-0.64a464.085333 464.085333 0 0 1-377.173334-205.866667 464 464 0 0 1-377.088 205.866667 84.778667 84.778667 0 0 1-12.970666 0.725333l-2.858667-0.085333c-3.242667 0-6.442667-0.256-9.642667-0.64a464.213333 464.213333 0 0 1-348.586666-168.106667l33.834666-16.64c22.357333-11.136 49.28-24.746667 66.048-34.005333l4.693334-2.602667c29.525333-16.64 41.088-16.981333 56.832-2.730667l3.797333 3.072a308.48 308.48 0 0 0 193.024 67.413334v0.128c2.133333-0.085333 4.266667-0.128 6.4-0.042667l0.341333-0.042667c163.285333 0.085333 297.941333-126.08 308.906667-287.317333a450.389333 450.389333 0 0 1-0.512-21.461333V205.056c0.298667-6.826667 1.536-13.397333 3.498667-19.626667A77.354667 77.354667 0 0 1 1244.672 128z m-780.586667 3.669333c41.301333 0 75.349333 32.298667 77.354667 73.386667v227.882667c0.042667 251.861333-202.24 457.386667-454.997333 462.336-3.242667 0.426667-6.485333 0.597333-9.728 0.64A77.269333 77.269333 0 0 1 2.986667 818.858667c0-41.173333 32.426667-75.093333 73.685333-77.056l0.64-0.085334c164.864 0.085333 300.544-128.512 309.162667-291.925333l0.213333-4.949333v-239.786667a77.312 77.312 0 0 1 77.354667-73.386667h0.042666z m389.845334 202.453334a102.997333 102.997333 0 0 1 103.168 102.826666c0 56.746667-46.165333 102.826667-103.168 102.826667a102.997333 102.997333 0 0 1-103.210667-102.826667c0-56.746667 46.208-102.826667 103.210667-102.826666z m-750.72 0a102.997333 102.997333 0 0 1 103.168 102.826666c0 56.746667-46.208 102.826667-103.168 102.826667A102.997333 102.997333 0 0 1 0 436.906667c0-56.746667 46.208-102.826667 103.210667-102.826667v0.042667z m1500.245333 0A102.997333 102.997333 0 0 1 1706.666667 436.949333c0 56.746667-46.208 102.826667-103.210667 102.826667a102.997333 102.997333 0 0 1-103.168-102.826667c0-56.746667 46.208-102.826667 103.168-102.826666z" /></svg>