<?xml version="1.0" standalone="no"?><!DOCTYPE svg PUBLIC "-//W3C//DTD SVG 1.1//EN" "http://www.w3.org/Graphics/SVG/1.1/DTD/svg11.dtd"><svg class="icon" width="200px" height="200.00px" viewBox="0 0 1024 1024" version="1.1" xmlns="http://www.w3.org/2000/svg"><path d="M473.6 537.6v409.6h-320a25.6 25.6 0 0 1-25.6-25.6v-384h345.6z m422.4 0v384a25.6 25.6 0 0 1-25.6 25.6h-320V537.6H896zM384 51.2c51.456 0 97.485 23.373 128 60.083A165.965 165.965 0 0 1 640 51.2h12.8a153.6 153.6 0 0 1 133.043 230.426L947.2 281.6a25.6 25.6 0 0 1 25.6 25.6v153.6H550.4V281.6h-76.8v179.2H51.2V307.2a25.6 25.6 0 0 1 25.6-25.6l161.357 0.026A153.6 153.6 0 0 1 371.2 51.2H384zM652.8 128H640a89.6 89.6 0 0 0-89.6 89.6v64h102.4a76.8 76.8 0 0 0 76.672-72.294l0.128-4.506a76.8 76.8 0 0 0-72.294-76.672L652.8 128zM384 128h-12.8a76.8 76.8 0 0 0 0 153.6h102.4v-64a89.6 89.6 0 0 0-84.685-89.472L384 128z" /></svg>