<?xml version="1.0" standalone="no"?><!DOCTYPE svg PUBLIC "-//W3C//DTD SVG 1.1//EN" "http://www.w3.org/Graphics/SVG/1.1/DTD/svg11.dtd"><svg class="icon" width="200px" height="153.87px" viewBox="0 0 1331 1024" version="1.1" xmlns="http://www.w3.org/2000/svg"><path d="M512 51.2a204.8 204.8 0 1 1 0 409.6 204.8 204.8 0 0 1 0-409.6z m307.2 0a204.8 204.8 0 1 1-115.2256 374.144A254.9248 254.9248 0 0 0 768 256a255.0272 255.0272 0 0 0-64-169.344A203.6992 203.6992 0 0 1 819.2 51.2zM512 537.6c237.184 0 432.5376 179.2 457.984 409.6H54.016c25.4464-230.4 220.8-409.6 457.984-409.6z m307.2 0c237.184 0 432.5376 179.2 457.984 409.6h-227.8144c-28.2368-178.0224-142.336-327.4752-298.496-404.5568C773.12 539.3152 795.9552 537.6 819.2 537.6z" /></svg>