<?xml version="1.0" standalone="no"?><!DOCTYPE svg PUBLIC "-//W3C//DTD SVG 1.1//EN" "http://www.w3.org/Graphics/SVG/1.1/DTD/svg11.dtd"><svg class="icon" width="200px" height="120.05px" viewBox="0 0 1706 1024" version="1.1" xmlns="http://www.w3.org/2000/svg"><path d="M1058.133333 0L473.531733 1024H0L585.454933 0H1058.133333z m140.014934 0C1478.997333 0 1706.666667 229.239467 1706.666667 512c0 282.760533-227.669333 512-508.5184 512H618.154667c-12.731733 0-25.3952-0.477867-37.888-1.399467l242.9952-421.751466h374.8864A88.576 88.576 0 0 0 1286.382933 512a88.576 88.576 0 0 0-88.234666-88.849067l-272.452267-0.034133L1169.544533 0h28.5696zM477.866667 0L239.342933 409.6 0 0h477.866667z" /></svg>