<?xml version="1.0" standalone="no"?><!DOCTYPE svg PUBLIC "-//W3C//DTD SVG 1.1//EN" "http://www.w3.org/Graphics/SVG/1.1/DTD/svg11.dtd"><svg class="icon" width="200px" height="200.00px" viewBox="0 0 1024 1024" version="1.1" xmlns="http://www.w3.org/2000/svg"><path d="M563.2 51.2v358.4h358.4v512a51.2 51.2 0 0 1-51.2 51.2H153.6a51.2 51.2 0 0 1-51.2-51.2V102.4a51.2 51.2 0 0 1 51.2-51.2h409.6z m-41.216 467.994H384v331.52h75.008V733.722h55.5c88.986 0 132.993-36.532 131.994-109.517-2.995-67.994-44.492-103.015-124.492-105.011z m-13.491 58.496c39.014 1.024 59.008 17.51 60.006 49.51-0.998 32-20.992 48.512-60.006 49.51h-49.485v-99.02zM640.153 51.2l280.679 281.6H640V51.2z" /></svg>