<?xml version="1.0" standalone="no"?><!DOCTYPE svg PUBLIC "-//W3C//DTD SVG 1.1//EN" "http://www.w3.org/Graphics/SVG/1.1/DTD/svg11.dtd"><svg class="icon" width="200px" height="200.00px" viewBox="0 0 1024 1024" version="1.1" xmlns="http://www.w3.org/2000/svg"><path d="M499.456 801.7152l-254.7712 143.4112a25.6 25.6 0 0 1-37.6576-27.3664l57.6768-286.592a25.6 25.6 0 0 0-7.7824-23.8848l-215.1168-197.9904a25.6 25.6 0 0 1 14.3872-44.2624l290.4064-33.7152a25.6 25.6 0 0 0 20.3264-14.7712L488.704 50.7648a25.6 25.6 0 0 1 46.5408 0l121.8048 265.7792a25.6 25.6 0 0 0 20.3264 14.7712l290.4064 33.7152a25.6 25.6 0 0 1 14.3872 44.288l-215.1168 197.9648a25.6 25.6 0 0 0-7.7824 23.8848l57.6768 286.592a25.6 25.6 0 0 1-37.632 27.3664l-254.7712-143.4112a25.6 25.6 0 0 0-25.1392 0z" /></svg>