<svg class="icon" width="200" height="200" viewBox="0 0 1024 1024" xmlns="http://www.w3.org/2000/svg"><path d="M550.4 842.598V998.4h-76.8V842.598a336.333 336.333 0 0 0 76.8 0zm222.515-123.98 110.183 110.156-54.324 54.324-110.156-110.183a334.797 334.797 0 0 0 54.272-54.272zm-521.83 0a334.797 334.797 0 0 0 54.272 54.272L195.226 883.098l-54.324-54.324 110.183-110.156zM512 256c141.389 0 256 114.611 256 256S653.389 768 512 768 256 653.389 256 512s114.611-256 256-256zm486.4 217.6v76.8H842.598a336.333 336.333 0 0 0 0-76.8H998.4zm-816.998 0a336.333 336.333 0 0 0 0 76.8H25.6v-76.8h155.802zm13.824-332.698 110.156 110.183a334.797 334.797 0 0 0-54.272 54.272L140.877 195.25l54.323-54.323zm633.548 0 54.324 54.324-110.183 110.156a334.797 334.797 0 0 0-54.272-54.272l110.131-110.208zM550.4 25.6v155.802a336.333 336.333 0 0 0-76.8 0V25.6h76.8z"/></svg>