<?xml version="1.0" standalone="no"?><!DOCTYPE svg PUBLIC "-//W3C//DTD SVG 1.1//EN" "http://www.w3.org/Graphics/SVG/1.1/DTD/svg11.dtd"><svg class="icon" width="200px" height="200.00px" viewBox="0 0 1024 1024" version="1.1" xmlns="http://www.w3.org/2000/svg"><path d="M998.4 140.8v742.4H25.6V140.8h972.8zM345.6 320a115.2 115.2 0 0 0-59.136 214.067A192.128 192.128 0 0 0 154.01 704h66.816a125.44 125.44 0 0 1 249.574 0h66.79a192.077 192.077 0 0 0-132.48-169.907A115.2 115.2 0 0 0 345.6 320z m499.2 230.4h-256v66.56h256V550.4zM345.6 386.56a48.64 48.64 0 1 1 0 97.28 48.64 48.64 0 0 1 0-97.28z m396.8 10.24H588.8v66.56h153.6V396.8z" /></svg>