<?xml version="1.0" standalone="no"?><!DOCTYPE svg PUBLIC "-//W3C//DTD SVG 1.1//EN" "http://www.w3.org/Graphics/SVG/1.1/DTD/svg11.dtd"><svg class="icon" width="200px" height="200.00px" viewBox="0 0 1024 1024" version="1.1" xmlns="http://www.w3.org/2000/svg"><path d="M563.2 51.2v358.4h358.4v512a51.2 51.2 0 0 1-51.2 51.2H153.6a51.2 51.2 0 0 1-51.2-51.2V102.4a51.2 51.2 0 0 1 51.2-51.2h409.6z m-192.3072 467.9936H294.4l72.0128 331.52h86.9888l54.016-211.5072c2.9696-9.0112 4.992-21.504 5.9904-37.504 0.9984 14.0032 2.9952 26.496 5.9904 37.504l50.9952 211.4816h84.0192l71.9872-331.4944h-75.008l-35.9936 223.488c-1.9968 13.0304-3.5072 25.5232-4.5056 37.5296h-1.4848c0-8.0128-1.024-18.0224-2.9952-30.0032a24.5504 24.5504 0 0 1-1.536-6.016l-53.9648-224.9984h-79.5136l-50.9952 222.0032c-1.9968 11.008-3.9936 24.0128-6.016 39.0144h-1.4848c-1.024-10.0096-1.5104-13.5168-1.5104-10.496v-0.0768l-0.3584-4.9664c-0.768-9.6768-1.5104-16.7936-2.2528-21.376l-0.384-2.0992-37.504-222.0032zM640.1536 51.2L920.832 332.8H640V51.2z" /></svg>