<?xml version="1.0" standalone="no"?><!DOCTYPE svg PUBLIC "-//W3C//DTD SVG 1.1//EN" "http://www.w3.org/Graphics/SVG/1.1/DTD/svg11.dtd"><svg class="icon" width="200px" height="200.00px" viewBox="0 0 1024 1024" version="1.1" xmlns="http://www.w3.org/2000/svg"><path d="M640 896v51.2a25.6 25.6 0 0 1-25.6 25.6h-204.8a25.6 25.6 0 0 1-25.6-25.6v-51.2h256zM512 51.2c190.8736 0 345.6 154.7264 345.6 345.6 0 135.68-78.1824 253.1072-192 309.6576V832H358.4v-125.5168C244.608 649.9072 166.4 532.48 166.4 396.8c0-188.2112 150.4512-341.2992 337.664-345.5232L512 51.2z m0 76.8C363.5456 128 243.2 248.3456 243.2 396.8c0 103.168 58.5984 195.7888 149.376 240.896l42.624 21.1968V755.2h153.6l0.0256-96.3328 42.624-21.1712A268.7744 268.7744 0 0 0 780.8 396.8C780.8 248.3456 660.4544 128 512 128z" /></svg>