<?xml version="1.0" standalone="no"?><!DOCTYPE svg PUBLIC "-//W3C//DTD SVG 1.1//EN" "http://www.w3.org/Graphics/SVG/1.1/DTD/svg11.dtd"><svg class="icon" width="200px" height="200.00px" viewBox="0 0 1024 1024" version="1.1" xmlns="http://www.w3.org/2000/svg"><path d="M512 51.2c254.4896 0 460.8 206.3104 460.8 460.8s-206.3104 460.8-460.8 460.8S51.2 766.4896 51.2 512 257.5104 51.2 512 51.2z m0 76.8C299.9296 128 128 299.9296 128 512c0 212.0704 171.9296 384 384 384 212.0704 0 384-171.9296 384-384 0-212.0704-171.9296-384-384-384z m120.3456 116.5824l66.5088 38.4L581.4016 486.4H665.6v76.8h-115.2v51.2H665.6v76.8h-115.2v128h-76.8v-128H358.4v-76.8h115.2v-51.2H358.4v-76.8h84.1728l-117.4272-203.4176 66.5088-38.4L512 452.992l120.3456-208.4096z" /></svg>