<svg class="icon" width="200" height="200" viewBox="0 0 1024 1024" xmlns="http://www.w3.org/2000/svg"><path d="m847.795 487.808 54.298 54.272L574.08 870.144c-104.96 104.96-275.2 104.96-380.16 0s-104.96-275.2 0-380.16l377.037-377.037a192 192 0 0 1 271.539 271.565L465.459 761.523a115.2 115.2 0 1 1-162.918-162.918l346.112-346.112 54.323 54.272-346.112 346.137a38.4 38.4 0 0 0 54.272 54.324l377.088-377.037A115.2 115.2 0 0 0 625.306 167.27L248.243 544.307a192 192 0 1 0 271.514 271.514l328.038-328.013z"/></svg>