<svg class="icon" width="200" height="200" viewBox="0 0 1024 1024" xmlns="http://www.w3.org/2000/svg"><path d="M921.6 947.2a25.6 25.6 0 0 1-25.6 25.6H128a25.6 25.6 0 0 1-25.6-25.6V76.8A25.6 25.6 0 0 1 128 51.2h512.154L921.6 333.568V947.2zM563.2 128h-384v768h665.6V409.6H563.2V128zm25.6 334.208h-.026l108.647 108.595-47.079 47.079-61.542-61.594V729.6l-.026 1.075.026 13.133h-.87a115.2 115.2 0 1 1-65.69-118.656V462.208h66.56zM473.6 680.96a48.64 48.64 0 1 0 48.64 49.28l-.026-1.28-.128-3.149A48.64 48.64 0 0 0 473.6 680.96zM640 159.82V332.8h172.39L640 159.82z"/></svg>