<?xml version="1.0" standalone="no"?><!DOCTYPE svg PUBLIC "-//W3C//DTD SVG 1.1//EN" "http://www.w3.org/Graphics/SVG/1.1/DTD/svg11.dtd"><svg class="icon" width="200px" height="200.00px" viewBox="0 0 1024 1024" version="1.1" xmlns="http://www.w3.org/2000/svg"><path d="M512 51.2a217.6 217.6 0 1 1 0 435.2 217.6 217.6 0 0 1 0-435.2z m0 76.8a140.8 140.8 0 1 0 0 281.6 140.8 140.8 0 0 0 0-281.6z m0 409.6c237.184 0 432.5376 179.2 457.984 409.6H54.016c25.4464-230.4 220.8-409.6 457.984-409.6z m0 76.8c-164.9152 0-307.1488 104.4992-361.0112 252.672l-1.1776 3.328h724.352l-1.152-3.328c-52.9408-145.6128-191.232-249.0624-352.512-252.5696L512 614.4z" /></svg>