<?xml version="1.0" standalone="no"?><!DOCTYPE svg PUBLIC "-//W3C//DTD SVG 1.1//EN" "http://www.w3.org/Graphics/SVG/1.1/DTD/svg11.dtd"><svg class="icon" width="200px" height="200.00px" viewBox="0 0 1024 1024" version="1.1" xmlns="http://www.w3.org/2000/svg"><path d="M636.7232 133.632a25.6 25.6 0 0 1 3.2768 12.544v731.648a25.6 25.6 0 0 1-38.144 22.3232L230.4 691.2H51.2V332.8h179.2l371.456-208.9472a25.6 25.6 0 0 1 34.8672 9.7792zM563.2 790.272V233.728L250.5216 409.6H128v204.8h122.5216L563.2 790.272z m230.4-316.672h179.2v76.8h-179.2z m-59.0336-214.528l162.4064-75.7504 32.4608 69.632-162.4064 75.7248z m0 505.856l162.4064 75.7504 32.4608-69.632-162.4064-75.7248z" /></svg>