<?xml version="1.0" standalone="no"?><!DOCTYPE svg PUBLIC "-//W3C//DTD SVG 1.1//EN" "http://www.w3.org/Graphics/SVG/1.1/DTD/svg11.dtd"><svg class="icon" width="200px" height="200.00px" viewBox="0 0 1024 1024" version="1.1" xmlns="http://www.w3.org/2000/svg"><path d="M694.4512 128a25.6 25.6 0 0 1 25.344 22.144L734.2592 256H947.2a25.6 25.6 0 0 1 25.6 25.6v588.8a25.6 25.6 0 0 1-25.6 25.6H76.8a25.6 25.6 0 0 1-25.6-25.6V281.6a25.6 25.6 0 0 1 25.6-25.6h264.1408l14.4384-105.856a25.6 25.6 0 0 1 25.344-22.144h313.728z m-44.6976 76.8h-224.3328l-17.4336 128H128v486.4h768V332.8h-228.8128l-17.4336-128zM512 384a179.2 179.2 0 1 1 0 358.4 179.2 179.2 0 0 1 0-358.4z m0 76.8a102.4 102.4 0 1 0 0 204.8 102.4 102.4 0 0 0 0-204.8zM281.6 140.8v76.8H128v-76.8h153.6z" /></svg>