<svg class="icon" width="200" height="200" viewBox="0 0 1024 1024" xmlns="http://www.w3.org/2000/svg"><path d="M512 51.2c254.49 0 460.8 206.31 460.8 460.8S766.49 972.8 512 972.8 51.2 766.49 51.2 512 257.51 51.2 512 51.2zm0 76.8c-212.07 0-384 171.93-384 384s171.93 384 384 384 384-171.93 384-384-171.93-384-384-384zm135.757 193.92 54.323 54.323L566.272 512l135.782 135.757-54.323 54.323L512 566.272 376.243 702.054l-54.323-54.323L457.728 512 321.946 376.243l54.323-54.323L512 457.728l135.757-135.782z"/></svg>