<?xml version="1.0" standalone="no"?><!DOCTYPE svg PUBLIC "-//W3C//DTD SVG 1.1//EN" "http://www.w3.org/Graphics/SVG/1.1/DTD/svg11.dtd"><svg class="icon" width="200px" height="200.00px" viewBox="0 0 1024 1024" version="1.1" xmlns="http://www.w3.org/2000/svg"><path d="M870.2976 144.0256l51.2 51.2-122.88 122.88a514.304 514.304 0 0 1 170.7264 193.8688C885.0432 679.04 711.8848 793.6 512 793.6c-56.832 0-111.488-9.2672-162.56-26.3424L197.4016 919.296l-51.2-51.2L870.2976 144.0256z m-127.1552 229.5296l-76.6208 76.6208a166.4 166.4 0 0 1-216.32 216.3712l-38.6048 38.5792c29.5168 6.9632 60.032 10.9312 91.1872 11.5712L512 716.8c150.6816 0 287.488-77.2096 366.464-200.3456l2.816-4.48-2.816-4.48a435.8144 435.8144 0 0 0-135.3216-133.9392zM512 230.4c49.664 0 97.664 7.0656 143.0528 20.2496l-63.8208 63.7696a436.4032 436.4032 0 0 0-70.016-7.1168L512 307.2a434.8928 434.8928 0 0 0-366.464 200.3456l-2.816 4.48 2.816 4.48a435.84 435.84 0 0 0 119.8848 123.776l-55.0912 55.04a514.2528 514.2528 0 0 1-155.648-183.296C138.9312 344.96 312.0896 230.4 512 230.4z m89.5488 284.8l-86.3744 86.2976 1.7408-0.0256a89.6 89.6 0 0 0 84.6336-86.272zM512 345.6a166.656 166.656 0 0 1 42.5728 5.504l-79.0272 79.0272a89.9328 89.9328 0 0 0-45.4144 45.4144l-79.0272 79.0272A166.4 166.4 0 0 1 512 345.6z" /></svg>