<?xml version="1.0" standalone="no"?><!DOCTYPE svg PUBLIC "-//W3C//DTD SVG 1.1//EN" "http://www.w3.org/Graphics/SVG/1.1/DTD/svg11.dtd"><svg class="icon" width="200px" height="200.00px" viewBox="0 0 1024 1024" version="1.1" xmlns="http://www.w3.org/2000/svg"><path d="M896 51.2a25.6 25.6 0 0 1 25.6 25.6v691.2a25.6 25.6 0 0 1-25.6 25.6h-153.6v153.6a25.6 25.6 0 0 1-25.6 25.6H128a25.6 25.6 0 0 1-25.6-25.6V256a25.6 25.6 0 0 1 25.6-25.6h153.6V76.8a25.6 25.6 0 0 1 25.6-25.6h588.8z m-230.4 256H179.2v588.8h486.4V307.2z m-102.4 358.4v76.8H281.6v-76.8h281.6zM844.8 128H358.4v102.4h358.4a25.6 25.6 0 0 1 25.6 25.6v460.8h102.4V128zM563.2 460.8v76.8H281.6v-76.8h281.6z" /></svg>