<?xml version="1.0" standalone="no"?><!DOCTYPE svg PUBLIC "-//W3C//DTD SVG 1.1//EN" "http://www.w3.org/Graphics/SVG/1.1/DTD/svg11.dtd"><svg class="icon" width="200px" height="200.00px" viewBox="0 0 1024 1024" version="1.1" xmlns="http://www.w3.org/2000/svg"><path d="M512 102.4l203.8272 230.1952L972.8 230.4l-102.4 665.6H153.6L51.2 230.4l258.048 102.1952L512 102.4z m0.1536 115.9936l-180.9408 205.4912-183.7312-72.7808L219.4944 819.2h584.9856l71.9872-467.8656-182.3744 72.5504-181.9392-205.4912zM512 460.8a140.8 140.8 0 1 1 0 281.6 140.8 140.8 0 0 1 0-281.6z m0 76.8a64 64 0 1 0 0 128 64 64 0 0 0 0-128z" /></svg>