<?xml version="1.0" standalone="no"?><!DOCTYPE svg PUBLIC "-//W3C//DTD SVG 1.1//EN" "http://www.w3.org/Graphics/SVG/1.1/DTD/svg11.dtd"><svg class="icon" width="200px" height="200.00px" viewBox="0 0 1024 1024" version="1.1" xmlns="http://www.w3.org/2000/svg"><path d="M550.4 384v463.8976l88.32-88.32 54.2976 54.3232L512 994.9184l-181.0176-181.0176 54.2976-54.2976 88.32 88.32V384h76.8zM486.4 51.2a332.8 332.8 0 0 1 296.0896 180.736C903.9616 245.4784 998.4 348.4928 998.4 473.6c0 130.0224-102.0416 236.2112-230.4 242.8672V716.8h-51.2v-76.8h42.752l4.48-0.2304a166.4 166.4 0 0 0 157.44-160.1536L921.6 473.6a166.4 166.4 0 0 0-147.6096-165.3504l-40.9344-4.5568-18.8416-36.608a255.9488 255.9488 0 0 0-219.7504-138.9568L486.4 128c-136.1408 0-248.2944 106.5728-255.5904 241.8176L227.84 424.0128l-52.0704 15.3344A102.4 102.4 0 0 0 204.8 640h102.4v76.8H204.8a179.2 179.2 0 0 1-50.688-351.1296C163.584 190.4128 308.736 51.2 486.4 51.2z" /></svg>