<?xml version="1.0" standalone="no"?><!DOCTYPE svg PUBLIC "-//W3C//DTD SVG 1.1//EN" "http://www.w3.org/Graphics/SVG/1.1/DTD/svg11.dtd"><svg class="icon" width="200px" height="200.00px" viewBox="0 0 1024 1024" version="1.1" xmlns="http://www.w3.org/2000/svg"><path d="M921.6 947.2a25.6 25.6 0 0 1-25.6 25.6H128a25.6 25.6 0 0 1-25.6-25.6V76.8a25.6 25.6 0 0 1 25.6-25.6h512.1536L921.6 333.568V947.2zM563.2 128H179.2v768h665.6V409.6H563.2V128z m-134.4 365.5936l55.5008 100.5056 9.0112 13.4912c2.9952 6.016 5.4784 10.496 7.5008 13.5168 3.9936-7.0144 8.9856-16.512 14.976-28.5184l54.016-98.9952h88.4992l-109.4912 166.5024 121.4976 164.992H577.28l-65.9968-104.9856a286.5664 286.5664 0 0 1-9.0112-15.0016 73.3696 73.3696 0 0 1-4.5056-7.5008c-5.9904 12.0064-9.984 19.5072-11.9808 22.5024l-66.0224 104.9856H332.8l116.992-164.992-111.0016-166.5024h90.0096zM640 159.8208V332.8h172.3904L640 159.8208z" /></svg>