<svg class="icon" width="200" height="200" viewBox="0 0 1024 1024" xmlns="http://www.w3.org/2000/svg"><path d="M921.6 947.2a25.6 25.6 0 0 1-25.6 25.6H128a25.6 25.6 0 0 1-25.6-25.6V76.8A25.6 25.6 0 0 1 128 51.2h512.154L921.6 333.568V947.2zM563.2 128h-384v768h665.6V409.6H563.2V128zM428.8 493.594l55.5 100.505 9.012 13.491c2.995 6.016 5.478 10.496 7.5 13.517 3.994-7.014 8.986-16.512 14.977-28.518l54.016-98.995h88.499L548.813 660.096 670.31 825.088h-93.03l-65.997-104.986a286.592 286.592 0 0 1-9.011-15.001 73.37 73.37 0 0 1-4.506-7.501c-5.99 12.006-9.984 19.507-11.98 22.502l-66.023 104.986H332.8l116.992-164.992L338.79 493.594h90.01zM640 159.82V332.8h172.39L640 159.82z"/></svg>