<?xml version="1.0" standalone="no"?><!DOCTYPE svg PUBLIC "-//W3C//DTD SVG 1.1//EN" "http://www.w3.org/Graphics/SVG/1.1/DTD/svg11.dtd"><svg class="icon" width="200px" height="200.00px" viewBox="0 0 1024 1024" version="1.1" xmlns="http://www.w3.org/2000/svg"><path d="M512 230.4c199.8848 0 373.0176 114.5344 457.344 281.5744C885.0432 679.04 711.8848 793.6 512 793.6c-199.8848 0-373.0176-114.5344-457.344-281.5744C138.9568 344.96 312.1152 230.4 512 230.4z m0 76.8a434.8928 434.8928 0 0 0-366.464 200.3456l-2.816 4.48 2.816 4.48a434.944 434.944 0 0 0 357.248 200.192L512 716.8c150.6816 0 287.488-77.2096 366.464-200.3456l2.816-4.48-2.816-4.48a434.944 434.944 0 0 0-357.248-200.192L512 307.2z m0 38.4a166.4 166.4 0 1 1 0 332.8 166.4 166.4 0 0 1 0-332.8z m0 76.8a89.6 89.6 0 1 0 0 179.2 89.6 89.6 0 0 0 0-179.2z" /></svg>