<?xml version="1.0" standalone="no"?><!DOCTYPE svg PUBLIC "-//W3C//DTD SVG 1.1//EN" "http://www.w3.org/Graphics/SVG/1.1/DTD/svg11.dtd"><svg class="icon" width="200px" height="200.00px" viewBox="0 0 1024 1024" version="1.1" xmlns="http://www.w3.org/2000/svg"><path d="M640 76.8c169.6512 0 307.2 137.5488 307.2 307.2s-137.5488 307.2-307.2 307.2c-70.912 0-136.2176-24.0384-188.2112-64.384l-70.9376 70.912 118.6048 118.6304-54.272 54.2976-118.656-118.6304-165.4272 165.4528-54.2976-54.2976 165.4272-165.4528-116.7104-116.6848 54.3232-54.3232 116.6848 116.6848 70.912-70.912A305.8688 305.8688 0 0 1 332.8 384c0-169.6512 137.5488-307.2 307.2-307.2z m0 76.8a230.4 230.4 0 1 0 0 460.8 230.4 230.4 0 0 0 0-460.8z" /></svg>