<svg class="icon" width="200" height="200" viewBox="0 0 1024 1024" xmlns="http://www.w3.org/2000/svg"><path d="M384 51.2c51.456 0 97.485 23.373 128 60.083A165.965 165.965 0 0 1 640 51.2h12.8a153.6 153.6 0 0 1 133.043 230.426L947.2 281.6a25.6 25.6 0 0 1 25.6 25.6v256H896v358.4a25.6 25.6 0 0 1-25.6 25.6H153.6a25.6 25.6 0 0 1-25.6-25.6V563.2H51.2v-256a25.6 25.6 0 0 1 25.6-25.6l161.357.026A153.6 153.6 0 0 1 371.2 51.2H384zM204.8 870.4h268.8V563.2H204.8v307.2zm614.4-307.2H550.4v307.2h268.8V563.2zM473.6 358.4H128v128h345.6v-128zm422.4 0H550.4v128H896v-128zM652.8 128H640a89.6 89.6 0 0 0-89.6 89.6v64h102.4a76.8 76.8 0 0 0 76.672-72.294l.128-4.506a76.8 76.8 0 0 0-72.294-76.672L652.8 128zM384 128h-12.8a76.8 76.8 0 0 0 0 153.6h102.4v-64a89.6 89.6 0 0 0-84.685-89.472L384 128z"/></svg>