<?xml version="1.0" standalone="no"?><!DOCTYPE svg PUBLIC "-//W3C//DTD SVG 1.1//EN" "http://www.w3.org/Graphics/SVG/1.1/DTD/svg11.dtd"><svg class="icon" width="200px" height="153.87px" viewBox="0 0 1331 1024" version="1.1" xmlns="http://www.w3.org/2000/svg"><path d="M512 76.8a217.6 217.6 0 1 1 0 435.2 217.6 217.6 0 0 1 0-435.2z m307.2 0a217.6 217.6 0 1 1-101.6576 410.0352 281.1136 281.1136 0 0 0 44.9024-63.5904 140.8 140.8 0 1 0 0-257.7408 282.0864 282.0864 0 0 0-44.8512-63.5392A216.192 216.192 0 0 1 819.2 76.8zM512 153.6a140.8 140.8 0 1 0 0 281.6 140.8 140.8 0 0 0 0-281.6z m0 409.6c237.184 0 432.5376 179.2 457.984 409.6h-77.3888l-0.5632-4.1472c-26.4448-183.2704-182.3232-324.6848-371.9936-328.576L512 640c-193.28 0-353.2288 142.7968-380.032 328.6528L131.3792 972.8H54.016c25.4464-230.4 220.8-409.6 457.984-409.6z m307.2 0c237.184 0 432.5376 179.2 457.984 409.6h-77.3888l-0.5632-4.1472c-23.9616-166.016-154.112-297.6768-319.3856-323.8912a538.8032 538.8032 0 0 0-108.672-79.104A464.9984 464.9984 0 0 1 819.2 563.2z" /></svg>