<?xml version="1.0" standalone="no"?><!DOCTYPE svg PUBLIC "-//W3C//DTD SVG 1.1//EN" "http://www.w3.org/Graphics/SVG/1.1/DTD/svg11.dtd"><svg class="icon" width="200px" height="200.00px" viewBox="0 0 1024 1024" version="1.1" xmlns="http://www.w3.org/2000/svg"><path d="M483.2768 190.5664L512 219.2896l28.7232-28.7232c98.7392-98.7648 257.792-100.4544 358.5792-5.12l5.2736 5.12c100.4544 100.4544 100.4544 263.3472 0 363.8272L550.2976 908.672a54.1696 54.1696 0 0 1-76.5952 0L119.424 554.3936c-100.4544-100.48-100.4544-263.3728 0-363.8272 100.48-100.48 263.3728-100.48 363.8528 0zM843.4944 244.48a176.0256 176.0256 0 0 0-245.3248 3.5328L512 334.1824l-86.1696-86.1696a176.0256 176.0256 0 0 0-248.96 248.9344L512 832.0512l335.1552-335.104c67.072-67.072 68.6848-174.7968 5.632-243.0976l-4.8384-5.0432-4.4288-4.3264z" /></svg>