<?xml version="1.0" standalone="no"?><!DOCTYPE svg PUBLIC "-//W3C//DTD SVG 1.1//EN" "http://www.w3.org/Graphics/SVG/1.1/DTD/svg11.dtd"><svg class="icon" width="200px" height="200.00px" viewBox="0 0 1024 1024" version="1.1" xmlns="http://www.w3.org/2000/svg"><path d="M921.6 76.8a25.6 25.6 0 0 1 25.6 25.6v819.2a25.6 25.6 0 0 1-25.6 25.6H102.4a25.6 25.6 0 0 1-25.6-25.6V102.4a25.6 25.6 0 0 1 25.6-25.6h819.2zM292.1728 500.4288L153.6 599.2448V870.4h716.8v-27.1872l-229.8112-204.5952-138.88 114.0224-209.536-252.16zM870.4 153.6H153.6v351.3344l152.064-108.4416 206.336 248.32L642.6368 537.6 870.4 740.3776V153.6z m-204.8 76.8a128 128 0 1 1 0 256 128 128 0 0 1 0-256z m0 76.8a51.2 51.2 0 1 0 0 102.4 51.2 51.2 0 0 0 0-102.4z" /></svg>