<?xml version="1.0" standalone="no"?><!DOCTYPE svg PUBLIC "-//W3C//DTD SVG 1.1//EN" "http://www.w3.org/Graphics/SVG/1.1/DTD/svg11.dtd"><svg class="icon" width="200px" height="200.00px" viewBox="0 0 1024 1024" version="1.1" xmlns="http://www.w3.org/2000/svg"><path d="M512 76.8c240.3584 0 435.2 194.8416 435.2 435.2 0 107.9552-39.296 206.72-104.3968 282.7776l-94.1824-193.1008 100.5568 32.0768C862.9248 595.7632 870.4 554.752 870.4 512c0-197.9392-160.4608-358.4-358.4-358.4S153.6 314.0608 153.6 512s160.4608 358.4 358.4 358.4c91.392 0 174.7968-34.2016 238.1056-90.5216l34.7392 71.1936A433.3824 433.3824 0 0 1 512 947.2c-240.3584 0-435.2-194.8416-435.2-435.2S271.6416 76.8 512 76.8z" /></svg>