<?xml version="1.0" standalone="no"?><!DOCTYPE svg PUBLIC "-//W3C//DTD SVG 1.1//EN" "http://www.w3.org/Graphics/SVG/1.1/DTD/svg11.dtd"><svg class="icon" width="200px" height="200.00px" viewBox="0 0 1024 1024" version="1.1" xmlns="http://www.w3.org/2000/svg"><path d="M512 51.2c197.9392 0 358.4 160.4608 358.4 358.4 0 131.968-119.4752 319.6928-358.4 563.2l-22.4-23.04C265.6 717.4656 153.6 537.3952 153.6 409.6 153.6 211.6608 314.0608 51.2 512 51.2z m0 76.8C356.48 128 230.4 254.08 230.4 409.6c0 95.1552 90.4192 246.4256 274.1504 444.2368l7.424 7.9872 7.4752-7.9872 19.328-20.992c167.6032-184.064 251.6736-326.144 254.72-418.0992L793.6 409.6c0-155.52-126.08-281.6-281.6-281.6z m0 102.4a179.2 179.2 0 1 1 0 358.4 179.2 179.2 0 0 1 0-358.4z m0 76.8a102.4 102.4 0 1 0 0 204.8 102.4 102.4 0 0 0 0-204.8z" /></svg>