<svg class="icon" width="200" height="200" viewBox="0 0 1024 1024" xmlns="http://www.w3.org/2000/svg"><path d="M512 51.2c254.49 0 460.8 206.31 460.8 460.8S766.49 972.8 512 972.8 51.2 766.49 51.2 512 257.51 51.2 512 51.2zm0 76.8c-212.07 0-384 171.93-384 384s171.93 384 384 384 384-171.93 384-384-171.93-384-384-384zm120.346 116.582 66.508 38.4L581.402 486.4H665.6v76.8H550.4v51.2h115.2v76.8H550.4v128h-76.8v-128H358.4v-76.8h115.2v-51.2H358.4v-76.8h84.173L325.146 282.982l66.508-38.4L512 452.992l120.346-208.41z"/></svg>