<?xml version="1.0" standalone="no"?><!DOCTYPE svg PUBLIC "-//W3C//DTD SVG 1.1//EN" "http://www.w3.org/Graphics/SVG/1.1/DTD/svg11.dtd"><svg class="icon" width="200px" height="200.00px" viewBox="0 0 1024 1024" version="1.1" xmlns="http://www.w3.org/2000/svg"><path d="M624.896 65.1264C824.7808 115.456 972.8 296.448 972.8 512c0 254.4896-206.3104 460.8-460.8 460.8-228.3008 0-417.8176-166.016-454.4-383.9232C103.552 605.3888 153.1136 614.4 204.8 614.4c240.3584 0 435.2-194.8416 435.2-435.2 0-38.656-5.0432-76.1856-14.5152-111.872l-0.6144-2.2016z m96.1536 124.6208l-4.352-2.7648 0.0256 1.024C712.0128 466.7136 484.6336 691.2 204.8 691.2c-9.1904 0-18.3296-0.256-27.4432-0.7168l-5.7344-0.4096 2.3808 4.48a384.4352 384.4352 0 0 0 329.3184 201.344L512 896c212.0704 0 384-171.9296 384-384 0-133.4528-68.6592-253.184-174.9504-322.2528z" /></svg>