<?xml version="1.0" standalone="no"?><!DOCTYPE svg PUBLIC "-//W3C//DTD SVG 1.1//EN" "http://www.w3.org/Graphics/SVG/1.1/DTD/svg11.dtd"><svg class="icon" width="200px" height="200.00px" viewBox="0 0 1024 1024" version="1.1" xmlns="http://www.w3.org/2000/svg"><path d="M629.5296 51.2a25.6 25.6 0 0 1 18.1504 7.5264l266.4448 267.3664a25.6 25.6 0 0 1 7.4752 18.0736V947.2a25.6 25.6 0 0 1-25.6 25.6H128a25.6 25.6 0 0 1-25.6-25.6V76.8a25.6 25.6 0 0 1 25.6-25.6h501.5296z m-21.248 76.8H179.2v768h665.6V365.312L608.2816 128zM386.4064 708.096h-55.5008v116.992h-75.008V493.5936h137.984c80.0256 1.9968 121.5232 37.0176 124.5184 105.0112 1.024 72.9856-43.008 109.4912-131.9936 109.4912z m-6.016-156.0064h-49.4848v99.0208h49.4848c39.0144-1.024 59.008-17.5104 60.0064-49.5104-0.9984-32-20.992-48.512-60.0064-49.5104z m275.6096 257.5104h-39.168V793.6c-6.4 12.8-19.4816 19.2-39.2192 19.2-33.6128-2.1248-51.2-22.9376-52.8128-62.4128-0.512-46.9248 18.688-70.144 57.6-69.5808 16.5376 1.0496 28.0064 8.2688 34.4064 21.5808v-80h39.1936v187.2128z m-38.4-62.4128v-6.4c-1.0496-18.6624-9.6-28.5184-25.6-29.5936-18.1248 0.5376-27.4432 12.8-27.9808 36.8128 0.512 23.4496 9.6 35.456 27.1872 35.9936 17.6128 0 26.3936-12.288 26.3936-36.8128z m175.104-121.6l-11.2128 28.0064a35.2 35.2 0 0 0-14.3872-3.2c-11.2128 0-16.7936 5.888-16.7936 17.6128v16h27.9808v29.5936H750.336v96.7936h-38.4v-96.7936h-20.8128v-29.5936h20.8128v-15.2064c-1.0752-33.6128 14.6688-49.6128 47.1808-48 13.3376 0 24.5504 1.6128 33.6128 4.8128zM640.1536 51.2L921.6 333.568V409.6H563.2V51.2h76.9536zM640 159.8208V332.8h172.3904L640 159.8208z" /></svg>