<svg class="icon" width="200" height="200" viewBox="0 0 1024 1024" xmlns="http://www.w3.org/2000/svg"><path d="M921.6 947.2a25.6 25.6 0 0 1-25.6 25.6H128a25.6 25.6 0 0 1-25.6-25.6V76.8A25.6 25.6 0 0 1 128 51.2h512.154L921.6 333.568V947.2zM563.2 128h-384v768h665.6V409.6H563.2V128zm-33.818 365.594c80 1.996 121.498 37.017 124.493 105.01 1.024 72.986-43.008 109.492-131.993 109.492H466.38v116.992h-75.008V493.594h137.984zm-13.49 58.496H466.38v99.02h49.51c38.989-1.024 58.983-17.51 59.981-49.51-.998-32-20.992-48.512-59.98-49.51zM640 159.82V332.8h172.39L640 159.82z"/></svg>