<?xml version="1.0" standalone="no"?><!DOCTYPE svg PUBLIC "-//W3C//DTD SVG 1.1//EN" "http://www.w3.org/Graphics/SVG/1.1/DTD/svg11.dtd"><svg class="icon" width="200px" height="200.00px" viewBox="0 0 1024 1024" version="1.1" xmlns="http://www.w3.org/2000/svg"><path d="M344.6528 128c56.32 0 112.0768 17.0752 167.3472 51.2l9.7536-5.8368C573.824 143.104 626.3552 128 679.3472 128H972.8v742.4H676.7616c-58.0096 0-112.9216 17.0752-164.7616 51.2-51.84-34.1248-106.752-51.2-164.7616-51.2H51.2V128h293.4528z m0 76.8H128v588.8h219.2384c43.5712 0 85.8112 7.6288 126.3872 22.7072L473.6 245.76l-1.9712-1.2288C428.1088 217.6512 386.1248 204.8 344.6528 204.8zM896 204.8h-216.6528c-36.1728 0-72.704 9.7536-109.568 29.6704l-8.5504 4.7616-10.8288 6.4768v570.5728a360.448 360.448 0 0 1 115.4048-22.528l10.9568-0.1536H896V204.8z m-76.8 332.8v76.8h-192v-76.8H819.2z m-422.4 0v76.8H204.8v-76.8h192zM819.2 358.4v76.8h-192v-76.8H819.2z m-422.4 0v76.8H204.8v-76.8h192z" /></svg>