<?xml version="1.0" standalone="no"?><!DOCTYPE svg PUBLIC "-//W3C//DTD SVG 1.1//EN" "http://www.w3.org/Graphics/SVG/1.1/DTD/svg11.dtd"><svg class="icon" width="200px" height="200.00px" viewBox="0 0 1024 1024" version="1.1" xmlns="http://www.w3.org/2000/svg"><path d="M82.048 564.5312l196.864 56.4736-21.1712 73.8048-64.256-18.4064a357.2224 357.2224 0 0 0 201.8304 174.464c187.136 64.4608 391.1168-35.0208 455.552-222.1824l72.6272 25.0112c-78.2592 227.2512-325.9136 348.0576-553.1904 269.7984a433.8176 433.8176 0 0 1-248.576-218.88l-22.2976 77.952L25.6 761.3952l56.448-196.864z m769.792 61.2352l72.8576 24.3968-1.1776 3.4304-72.6272-24.96 0.9728-2.8672zM103.3216 362.5216C184.4224 140.288 429.0048 23.168 653.6704 100.5056a433.792 433.792 0 0 1 247.68 217.1392l21.8624-76.2112 73.8304 21.1712-56.4736 196.864-196.864-56.4736 21.1712-73.8048 65.8176 18.8416a357.1968 357.1968 0 0 0-202.0352-174.8992C441.5232 108.672 237.568 208.1792 173.1072 395.3408l-0.4864 1.4336-72.704-24.6784z" /></svg>