<?xml version="1.0" standalone="no"?><!DOCTYPE svg PUBLIC "-//W3C//DTD SVG 1.1//EN" "http://www.w3.org/Graphics/SVG/1.1/DTD/svg11.dtd"><svg class="icon" width="200px" height="200.00px" viewBox="0 0 1024 1024" version="1.1" xmlns="http://www.w3.org/2000/svg"><path d="M870.4 384a51.2 51.2 0 0 1 51.2 51.2v460.8a51.2 51.2 0 0 1-51.2 51.2H281.6a51.2 51.2 0 0 1-51.2-51.2V435.2a51.2 51.2 0 0 1 51.2-51.2h588.8z m-25.6 76.8H307.2v409.6h537.6V460.8zM491.1104 53.5808l90.496 90.496L635.904 198.4 581.632 252.672l-90.5216 90.5216-54.272-54.3232 53.7856-53.8368A397.056 397.056 0 0 0 135.8336 502.272l-72.6016-25.0112A473.856 473.856 0 0 1 487.2448 158.3104l-50.432-50.432 54.2976-54.2976z" /></svg>