<?xml version="1.0" standalone="no"?><!DOCTYPE svg PUBLIC "-//W3C//DTD SVG 1.1//EN" "http://www.w3.org/Graphics/SVG/1.1/DTD/svg11.dtd"><svg class="icon" width="200px" height="200.00px" viewBox="0 0 1024 1024" version="1.1" xmlns="http://www.w3.org/2000/svg"><path d="M512 51.2a204.8 204.8 0 0 1 204.8 204.8v25.6h129.8176a25.6 25.6 0 0 1 25.5488 23.7056l47.3856 640a25.6 25.6 0 0 1-23.6288 27.4176l-1.8944 0.0768H129.9712a25.6 25.6 0 0 1-25.6-25.6l0.0768-1.8944 47.3856-640A25.6 25.6 0 0 1 177.408 281.6h129.792L307.2 256a204.8 204.8 0 0 1 204.8-204.8z m287.0528 307.2H716.8v102.4h-76.8v-102.4H384v102.4h-76.8v-102.4H224.9216L185.088 896h653.7984l-39.8336-537.6zM512 128a128 128 0 0 0-128 128v25.6h256v-25.6a128 128 0 0 0-128-128z" /></svg>