<?xml version="1.0" standalone="no"?><!DOCTYPE svg PUBLIC "-//W3C//DTD SVG 1.1//EN" "http://www.w3.org/Graphics/SVG/1.1/DTD/svg11.dtd"><svg class="icon" width="200px" height="200.00px" viewBox="0 0 1024 1024" version="1.1" xmlns="http://www.w3.org/2000/svg"><path d="M486.4 102.4v435.2h435.2c0 240.3584-194.8416 435.2-435.2 435.2S51.2 777.9584 51.2 537.6 246.0416 102.4 486.4 102.4z m-76.8 85.0432l-1.1008 0.256C248.0128 223.232 128 366.3872 128 537.6c0 197.9392 160.4608 358.4 358.4 358.4 168.3456 0 309.5808-116.0448 348.0576-272.512l2.0736-9.088H409.6V187.4432z m153.6-135.5008C783.1552 64.6912 959.3088 240.8448 972.032 460.8H563.2V51.9424z m76.7744 90.88v241.152h241.152l-2.1504-7.0656a359.3472 359.3472 0 0 0-231.8848-231.8848L640 142.848z" /></svg>