<?xml version="1.0" standalone="no"?><!DOCTYPE svg PUBLIC "-//W3C//DTD SVG 1.1//EN" "http://www.w3.org/Graphics/SVG/1.1/DTD/svg11.dtd"><svg class="icon" width="200px" height="200.00px" viewBox="0 0 1024 1024" version="1.1" xmlns="http://www.w3.org/2000/svg"><path d="M550.4 842.5984V998.4h-76.8v-155.8016a336.3328 336.3328 0 0 0 76.8 0z m222.5152-123.9808l110.1824 110.1568-54.3232 54.3232-110.1568-110.1824a334.7968 334.7968 0 0 0 54.272-54.272z m-521.8304 0a334.7968 334.7968 0 0 0 54.272 54.272l-110.1312 110.208-54.3232-54.3232 110.1824-110.1568zM512 256c141.3888 0 256 114.6112 256 256s-114.6112 256-256 256-256-114.6112-256-256 114.6112-256 256-256z m0 76.8a179.2 179.2 0 1 0 0 358.4 179.2 179.2 0 0 0 0-358.4z m486.4 140.8v76.8h-155.8016a336.3328 336.3328 0 0 0 0-76.8H998.4z m-816.9984 0a336.3328 336.3328 0 0 0 0 76.8H25.6v-76.8h155.8016z m13.824-332.6976l110.1568 110.1824a334.7968 334.7968 0 0 0-54.272 54.272L140.8768 195.2512l54.3232-54.3232z m633.5488 0l54.3232 54.3232-110.1824 110.1568a334.7968 334.7968 0 0 0-54.272-54.272l110.1312-110.208zM550.4 25.6v155.8016a336.3328 336.3328 0 0 0-76.8 0V25.6h76.8z" /></svg>