<?xml version="1.0" standalone="no"?><!DOCTYPE svg PUBLIC "-//W3C//DTD SVG 1.1//EN" "http://www.w3.org/Graphics/SVG/1.1/DTD/svg11.dtd"><svg class="icon" width="200px" height="200.00px" viewBox="0 0 1024 1024" version="1.1" xmlns="http://www.w3.org/2000/svg"><path d="M431.5136 85.4784l-355.1744 8.576a25.6 25.6 0 0 0-24.9856 25.6v345.9584l506.88 506.88 380.1344-380.16-506.88-506.8544z m-31.0784 77.568l429.312 429.2864-271.5392 271.5136L128.1792 433.8176V169.6256l272.256-6.6048z m-101.9136 69.76a102.4 102.4 0 1 0 0 204.8 102.4 102.4 0 0 0 0-204.8z m0 66.56a35.84 35.84 0 1 1 0 71.68 35.84 35.84 0 0 1 0-71.68z" /></svg>