<?xml version="1.0" standalone="no"?><!DOCTYPE svg PUBLIC "-//W3C//DTD SVG 1.1//EN" "http://www.w3.org/Graphics/SVG/1.1/DTD/svg11.dtd"><svg class="icon" width="200px" height="200.00px" viewBox="0 0 1024 1024" version="1.1" xmlns="http://www.w3.org/2000/svg"><path d="M501.9392 76.8l271.5136 271.5392-54.2976 54.272-217.2416-217.216-217.216 217.2416L230.4 348.3392 501.9392 76.8z m-182.0928 522.1376v58.7008H220.6208v272.9472H150.8864V657.6384H51.2v-58.7008h268.6464zM498.944 939.776c-47.3856 0-83.6096-12.9024-108.672-38.7072-33.5872-31.6416-50.4064-77.2352-50.4064-136.8064 0-60.7488 16.8192-106.3424 50.432-136.7808C415.3088 601.7024 451.5328 588.8 498.944 588.8c47.4112 0 83.6352 12.9024 108.672 38.7072 33.4592 30.464 50.176 76.032 50.176 136.7808 0 59.5712-16.7168 105.1648-50.176 136.8064-25.0368 25.8048-61.2608 38.7072-108.672 38.7072z m65.4848-89.088c16.0512-20.2752 24.064-49.0752 24.064-86.4256 0-37.1968-8.064-65.9456-24.192-86.272-16.128-20.3264-37.888-30.4896-65.3568-30.4896-27.4432 0-49.3312 10.112-65.6896 30.3616-16.3584 20.2496-24.5248 49.0496-24.5248 86.4 0 37.376 8.192 66.1504 24.5248 86.4 16.3584 20.2496 38.2464 30.3872 65.6896 30.3872 27.4688 0 49.28-10.1376 65.4848-30.3872z m287.104-39.3984h-70.4256v119.2704h-68.864V598.9376h144.4608c33.28 0 59.8528 8.5248 79.6416 25.6256 19.8144 17.1008 29.696 43.5968 29.696 79.4368 0 39.168-9.8816 66.816-29.696 83.0208-19.7888 16.2048-48.0768 24.32-84.8128 24.32z m32.384-69.0688c9.0112-7.936 13.5168-20.5568 13.5168-37.7856 0-17.2544-4.5568-29.568-13.6192-36.9152-9.088-7.3472-21.7856-11.008-38.144-11.008h-64.5632v97.6384h64.5632c16.3584 0 29.1072-3.968 38.2464-11.9296z" /></svg>