<?xml version="1.0" standalone="no"?><!DOCTYPE svg PUBLIC "-//W3C//DTD SVG 1.1//EN" "http://www.w3.org/Graphics/SVG/1.1/DTD/svg11.dtd"><svg class="icon" width="200px" height="200.00px" viewBox="0 0 1024 1024" version="1.1" xmlns="http://www.w3.org/2000/svg"><path d="M921.6 947.2a25.6 25.6 0 0 1-25.6 25.6H128a25.6 25.6 0 0 1-25.6-25.6V76.8a25.6 25.6 0 0 1 25.6-25.6h512.1536L921.6 333.568V947.2zM563.2 128H179.2v768h665.6V409.6H563.2V128z m-153.6 279.552a25.6 25.6 0 0 1 14.6688 4.6336l236.9792 165.888a25.6 25.6 0 0 1 0 41.9328l-236.9792 165.888a25.6 25.6 0 0 1-40.2688-20.992V433.1776a25.6 25.6 0 0 1 25.6-25.6z m51.2 123.9296v135.0912l96.4608-67.5328L460.8 531.4816z m179.2-371.6608V332.8h172.3904L640 159.8208z" /></svg>