<?xml version="1.0" standalone="no"?><!DOCTYPE svg PUBLIC "-//W3C//DTD SVG 1.1//EN" "http://www.w3.org/Graphics/SVG/1.1/DTD/svg11.dtd"><svg class="icon" width="200px" height="200.00px" viewBox="0 0 1024 1024" version="1.1" xmlns="http://www.w3.org/2000/svg"><path d="M819.2 128l144.9728 265.7536a25.6 25.6 0 0 1-3.3792 29.312l-429.696 481.536a25.6 25.6 0 0 1-36.1472 2.0736l-1.0496-0.9984L63.2064 423.0656a25.6 25.6 0 0 1-3.3792-29.312L204.8 128h614.4z m-45.5936 76.8H250.368l-105.8304 194.048L512 810.6496 879.4368 398.848 773.6064 204.8z m-379.52 204.8l118.1184 127.3088 118.656-127.232 56.1664 52.3776-174.592 187.2128-174.5152-187.2896L394.0864 409.6z" /></svg>