<svg class="icon" width="200" height="200" viewBox="0 0 1024 1024" xmlns="http://www.w3.org/2000/svg"><path d="M512 230.4c183.808 0 332.8 148.992 332.8 332.8v256H179.2v-256c0-183.808 148.992-332.8 332.8-332.8zm0 76.8c-141.389 0-256 114.611-256 256v179.2h76.8V563.2h76.8v179.2H768V563.2c0-139.008-110.771-252.109-248.832-255.898L512 307.2zM161.1 170.803l90.497 90.496-54.272 54.298-90.522-90.496 54.272-54.298zm701.8 0 54.297 54.272-90.496 90.522-54.298-54.272 90.496-90.522zM550.4 51.2v128h-76.8v-128h76.8zM128 896h768v76.8H128z"/></svg>