<?xml version="1.0" standalone="no"?><!DOCTYPE svg PUBLIC "-//W3C//DTD SVG 1.1//EN" "http://www.w3.org/Graphics/SVG/1.1/DTD/svg11.dtd"><svg class="icon" width="200px" height="119.98px" viewBox="0 0 1707 1024" version="1.1" xmlns="http://www.w3.org/2000/svg"><path d="M521.898667 179.413333c12.629333 4.693333 23.509333 13.226667 31.104 24.405334 6.058667 13.226667-5.248 30.506667-18.602667 47.36l-34.432 56.448-34.773333 56.234666c-7.253333 11.562667-79.573333 151.253333-89.429334 180.138667C356.778667 601.6 331.946667 657.92 316.416 716.8c-7.466667 34.602667-20.181333 105.984-20.181333 105.984-7.893333 44.714667-13.952 62.208-25.642667 69.546667-17.194667 6.528-36.48 4.266667-51.712-6.101334-10.069333-6.314667-2.389333-58.794667 8.917333-113.664 17.066667-87.04 41.685333-172.373333 73.685334-254.976 11.093333-27.050667 19.541333-50.645333 29.269333-75.264 3.2-4.693333 17.322667-35.754667 18.56-40.661333-10.752 10.581333-20.906667 21.717333-30.506667 33.365333-36.906667 55.466667-131.2 196.224-162.090666 222.421334a42.154667 42.154667 0 0 1-60.586667-8.533334A1391.445333 1391.445333 0 0 1 2.133333 462.250667a26.325333 26.325333 0 0 1 11.946667-33.536c14.933333-8.746667 24.576 3.242667 33.28 11.605333 16.213333 21.76 29.738667 45.354667 40.362667 70.357333 29.866667 68.693333 41.6 73.6 90.453333 11.178667 58.538667-75.050667 116.650667-150.698667 179.626667-221.653333 13.738667-15.445333 31.146667-32.725333 45.226666-48.213334 16.981333-20.309333 22.826667-26.410667 40.405334-45.098666 26.837333-30.293333 43.178667-47.786667 78.506666-27.477334z m21.589333 347.648c8.533333 10.666667 12.373333 23.808 10.837333 36.906667-15.274667 77.098667-38.314667 141.226667-59.818666 211.498667a60.586667 60.586667 0 0 1-4.181334 15.573333c-7.552 16.213333-28.288 23.893333-46.336 17.152-18.816-6.570667-20.821333-20.949333-13.056-40.917333 5.12-13.397333 9.088-25.173333 15.957334-39.936 19.498667-46.72 20.138667-93.269333 35.669333-138.794667 3.2-12.501333 1.877333-25.6-3.797333-37.333333a28.032 28.032 0 0 1 6.229333-36.352 60.501333 60.501333 0 0 1 58.453333 12.202666z m332.501333-260.522666c-3.669333 36.266667-11.221333 72.192-16.085333 108.714666-1.834667 13.653333-19.2 40.106667 1.194667 40.106667 12.245333-1.066667 24.277333-3.84 35.712-8.234667 59.52-14.250667 114.176-45.909333 175.36-54.357333 40.149333-4.992 56.064 0.597333 62.378666 20.053333 6.314667 19.456-9.386667 34.901333-48.725333 48.128-7.552 2.602667-54.058667 22.272-70.144 27.690667-52.010667 17.237333-103.978667 33.706667-156.416 48.725333a75.946667 75.946667 0 0 0-23.253333 11.221334 52.864 52.864 0 0 0-17.493334 33.877333c84.736 26.453333 166.698667 61.013333 244.650667 103.082667l57.941333 35.712c32 15.658667 35.84 24.874667 26.282667 44.928-6.528 13.226667-17.493333 21.632-30.976 12.202666-21.418667-15.786667-43.989333-30.08-67.498667-42.666666a1154.645333 1154.645333 0 0 0-227.968-98.901334 19.029333 19.029333 0 0 0-16.426666 0.554667 18.474667 18.474667 0 0 0-9.685334 13.098667c-20.992 61.952-40.149333 90.624-49.536 128.554666-4.266667 16.426667-9.898667 32.512-16.725333 48.128a30.506667 30.506667 0 0 1-13.952 18.986667 31.445333 31.445333 0 0 1-23.594667 3.669333c-18.944-4.437333-23.850667-21.077333-20.352-38.314666 2.005333-10.837333 10.197333-43.946667 13.013334-50.944 15.104-38.314667 31.232-76.373333 45.098666-115.285334 10.368-29.098667 10.368-29.098667-28.757333-35.498666a287.146667 287.146667 0 0 0-38.357333-6.826667 184.917333 184.917333 0 0 0-27.093334-1.792 26.197333 26.197333 0 0 1-23.253333-6.016l-12.032-16.64a7.722667 7.722667 0 0 1 2.645333-12.245333 1239.552 1239.552 0 0 1 137.045334-64c36.693333-13.44 39.338667-25.856 50.773333-64.170667a1166.08 1166.08 0 0 0 20.394667-136.533333c-2.261333-21.461333-3.498667-44.117333 25.045333-47.957334 22.869333-3.2 43.648 22.869333 40.789333 52.949334z m711.466667 224c1.066667 16.981333-4.394667 33.706667-15.36 47.104a164.693333 164.693333 0 0 1-55.466667 35.754666c-71.466667 29.354667-146.986667 33.408-222.08 37.461334-22.186667 1.152-44.8 0.213333-62.592 16.426666a116.821333 116.821333 0 0 0 76.544 41.130667 1594.88 1594.88 0 0 0 217.002667 32.298667c56.917333 3.456 110.208 2.133333 174.592 6.912 10.666667 0.597333 5.461333 18.56 4.053333 28.416-8.106667 26.069333-32.938667 30.122667-53.12 31.488-33.152 1.28-66.389333-0.128-99.285333-4.266667-103.552-9.642667-227.498667-24.149333-305.450667-59.093333-48.213333-18.56-65.578667-51.2-78.506666-98.730667-7.253333-5.546667-19.797333-14.293333-14.506667-21.632 8.661333-12.373333 21.76-11.946667 30.848-24.149333a276.053333 276.053333 0 0 1 115.456-107.008 260.778667 260.778667 0 0 1 112.042667-25.685334c115.285333-5.034667 175.829333 53.888 175.829333 63.573334z m-302.805333 38.4c-8.874667 6.826667-18.944 11.605333-15.744 25.898666 3.242667 14.293333 18.346667 8.533333 27.861333 12.586667a610.432 610.432 0 0 0 205.098667-43.690667c15.744-15.232 13.312-27.434667-8.106667-33.408a229.888 229.888 0 0 0-209.066667 38.656z m-522.453334-23.338667c-13.226667 3.2-26.026667 7.765333-38.314666 13.653333 10.24 2.56 20.693333 4.352 31.189333 5.376 1.578667-6.613333 4.010667-13.013333 7.125333-19.029333zM554.666667 341.333333a42.666667 42.666667 0 1 1 0 85.333334 42.666667 42.666667 0 0 1 0-85.333334z" /></svg>