<?xml version="1.0" standalone="no"?><!DOCTYPE svg PUBLIC "-//W3C//DTD SVG 1.1//EN" "http://www.w3.org/Graphics/SVG/1.1/DTD/svg11.dtd"><svg class="icon" width="200px" height="200.00px" viewBox="0 0 1024 1024" version="1.1" xmlns="http://www.w3.org/2000/svg"><path d="M435.2 76.8c197.9392 0 358.4 160.4608 358.4 358.4a356.864 356.864 0 0 1-78.0288 223.2576l253.1072 253.0816-54.2976 54.272-252.8-252.7488A356.9152 356.9152 0 0 1 435.2 793.6C237.2608 793.6 76.8 633.1392 76.8 435.2S237.2608 76.8 435.2 76.8z m0 76.8C279.68 153.6 153.6 279.68 153.6 435.2s126.08 281.6 281.6 281.6 281.6-126.08 281.6-281.6c0-153.0624-122.112-277.5808-274.2272-281.4976L435.2 153.6z m153.6 243.2v76.8H281.6v-76.8h307.2z" /></svg>